<svg id="Login-illustration" xmlns="http://www.w3.org/2000/svg" xmlns:xlink="http://www.w3.org/1999/xlink" width="212" height="212" viewBox="0 0 212 212">
    <defs>
        <clipPath id="clip-path">
            <rect id="Background" width="212" height="212" fill="none"/>
        </clipPath>
    </defs>
    <rect id="Background-2" data-name="Background" width="212" height="212" fill="none"/>
    <g id="Login-illustration-2" data-name="Login-illustration" clip-path="url(#clip-path)">
        <g id="background-complete--inject-64" transform="translate(23.219 25.752)">
            <path id="Shape" d="M36.2,43.233c6.046-5.966,6.08-15.133,4.444-23.087-.276-1.327-.369-2.76-1.2-3.816a2.771,2.771,0,0,0-3.553-.848c-.912.636-1.149,1.866-1.539,2.913a7.95,7.95,0,0,1-2.62,3.528,3.03,3.03,0,0,1-2.7.717c-1.272-.424-1.671-2.006-1.887-3.337l-1.221-7.433a12.656,12.656,0,0,0-1.077-3.88,4.177,4.177,0,0,0-3.066-2.34,2.532,2.532,0,0,0-2.807,2.2,12.3,12.3,0,0,0,.246,1.662,1.421,1.421,0,0,1-.594,1.454,1.646,1.646,0,0,1-1.565-.36,17.983,17.983,0,0,1-3.986-4.24A24.627,24.627,0,0,0,9.251,1.931,7.238,7.238,0,0,0,3.917.035,4.342,4.342,0,0,0,.012,3.72C-.149,5.67,1.284,7.388,2.713,8.7A30.21,30.21,0,0,0,9.9,13.523a2.463,2.463,0,0,1,1.221.933,1.882,1.882,0,0,1-1.073,2.3,15.573,15.573,0,0,1-3.04.882,3.024,3.024,0,0,0-2.281,1.993c-.314,1.45,1.064,2.68,2.34,3.417a25.728,25.728,0,0,0,8.26,3.057,8.675,8.675,0,0,1,3.023.878,2.505,2.505,0,0,1,1.272,2.684,2.536,2.536,0,0,1-2.544,1.509,19.139,19.139,0,0,1-3.1-.615c-1.946-.377-4.278.153-5.181,1.929a4.265,4.265,0,0,0,.191,3.795,9.8,9.8,0,0,0,2.561,2.938,25.945,25.945,0,0,0,12.215,5.8c4.482.742,8.48.471,12.419-1.789" fill="#ebebeb"/>
            <path id="Shape-2" data-name="Shape" d="M0,0A.848.848,0,0,0,.148.106L.6.39C1,.636,1.594,1,2.34,1.5A50.173,50.173,0,0,1,8.353,6.106c1.2,1.06,2.463,2.277,3.816,3.612s2.748,2.769,4.181,4.333a61.846,61.846,0,0,1,4.24,5.118c.683.929,1.323,1.912,1.972,2.917l1.972,3.053A123.268,123.268,0,0,1,31.44,37.134a60.021,60.021,0,0,1,4.075,10.52,43.914,43.914,0,0,1,1.408,7.479c.081.895.131,1.594.148,2.069,0,.225.021.4.03.538a1.27,1.27,0,0,0,0,.182.874.874,0,0,0,0-.182V57.2c0-.475-.038-1.174-.1-2.073a42.124,42.124,0,0,0-1.336-7.518,59.056,59.056,0,0,0-4.041-10.575,120.345,120.345,0,0,0-6.915-12.007l-1.972-3.053c-.653-1-1.3-1.993-1.989-2.926A58.576,58.576,0,0,0,16.494,13.9c-1.437-1.569-2.862-3-4.2-4.325S9.676,7.03,8.476,5.974A48.336,48.336,0,0,0,2.4,1.412C1.637.933,1.039.564.628.348L.165.085A1.188,1.188,0,0,0,0,0Z" transform="translate(1.632 1.562)" fill="#e0e0e0"/>
            <path id="Shape-3" data-name="Shape" d="M.676,14.942a2.773,2.773,0,0,0,.03-.585c0-.382,0-.929,0-1.607C.667,11.4.553,9.527.417,7.467S.188,3.54.171,2.188V.589A2.7,2.7,0,0,0,.146,0,2.675,2.675,0,0,0,.074.585C.04.962.018,1.509.006,2.188-.02,3.545.04,5.419.18,7.484s.263,3.867.36,5.275c.042.636.072,1.17.1,1.6a2.2,2.2,0,0,0,.034.585Z" transform="translate(21.656 5.645)" fill="#e0e0e0"/>
            <path id="Shape-4" data-name="Shape" d="M0,.548A3.727,3.727,0,0,0,.7.514C1.119.476,1.785.421,2.582.379,4.176.281,6.4.222,8.815.264s4.639.178,6.233.322c.793.068,1.437.14,1.883.187a3.689,3.689,0,0,0,.7.047,3.816,3.816,0,0,0-.683-.144C16.519.6,15.858.5,15.065.413,13.47.222,11.249.056,8.819.014A60.946,60.946,0,0,0,2.57.2C1.772.268,1.128.349.687.417A3.736,3.736,0,0,0,0,.548Z" transform="translate(4.706 19.767)" fill="#e0e0e0"/>
            <path id="Shape-5" data-name="Shape" d="M0,23.278a.925.925,0,0,0,.081-.229c.051-.178.11-.4.187-.666.161-.581.369-1.429.611-2.476.492-2.1,1.077-5.016,1.7-8.243s1.158-6.152,1.6-8.255c.22-1.022.4-1.866.534-2.489.059-.271.106-.5.144-.683A.772.772,0,0,0,4.884,0,1.222,1.222,0,0,0,4.8.229c-.051.178-.11.4-.187.666-.157.581-.365,1.425-.611,2.476-.492,2.095-1.077,5.016-1.7,8.243s-1.158,6.131-1.6,8.251c-.22,1.022-.4,1.866-.534,2.489l-.14.678A.946.946,0,0,0,0,23.278Z" transform="translate(33.012 15.015)" fill="#e0e0e0"/>
            <path id="Shape-6" data-name="Shape" d="M0,.009A1.119,1.119,0,0,0,.242.064l.7.106L3.481.543c2.167.314,5.152.784,8.45,1.306s6.292.967,8.48,1.234c1.085.136,1.963.237,2.574.293l.7.025a.848.848,0,0,0,.246,0,1.119,1.119,0,0,0-.242-.055l-.7-.106-2.544-.373c-2.167-.314-5.152-.784-8.45-1.306S5.7.594,3.515.323C2.425.191,1.548.09.937.03L.246.009A.848.848,0,0,0,0,.009Z" transform="translate(9.069 34.871)" fill="#e0e0e0"/>
            <path id="Shape-7" data-name="Shape" d="M42.221.183s-4.329-2.12-7.984,8.056a125.533,125.533,0,0,0-4.8,15.908s-1.03,2.162-2.574,1.03-3.892-4.6-6.144-3.642c-2.336,1-2.79,3.816-1.823,7.721s2.769,12.567,2.93,13.352-.144,1.967-1.319,1.365-8.255-6.729-10.96-3.193,1.777,13.992,2.247,15.15.3,1.7-.233,2.061-2.714-1.916-4.8-3.574S1.962,51.2.575,53.37-.307,63.754,9.127,76l4.723,5.368,7.094-1.3C35.95,76.355,41.462,70.245,41.72,67.68s-2.828-3.032-5.491-3.032-5.8.424-5.987-.191.021-1.145,1.1-1.755,11.109-6.008,11.194-10.46-9.273-4.066-10.566-4.325-.784-1.382-.182-1.887S39.2,39.866,42.39,37.4s4.583-4.94,3.392-7.174c-1.162-2.158-5.164-.907-7.072-.979s-1.374-2.408-1.374-2.408A124.491,124.491,0,0,0,43.484,11.4C46.952,1.167,42.115.145,42.115.145" transform="translate(127.443 20.446)" fill="#e0e0e0"/>
            <path id="Shape-8" data-name="Shape" d="M28.972,0a.592.592,0,0,1-.064.216c-.064.14-.114.365-.2.636-.182.56-.454,1.378-.8,2.425-.7,2.12-1.73,5.143-3.019,8.9-2.578,7.5-6.229,17.842-10.29,29.256S6.86,63.151,4.24,70.643c-1.3,3.74-2.357,6.784-3.087,8.874L.305,81.929c-.1.267-.17.475-.225.623S0,82.765,0,82.765a.625.625,0,0,1,.059-.216c.059-.14.119-.365.2-.636.187-.564.458-1.378.8-2.425.7-2.12,1.73-5.143,3.023-8.9,2.578-7.5,6.224-17.842,10.29-29.256S22.116,19.6,24.732,12.105c1.3-3.74,2.353-6.784,3.087-8.874.365-1.039.644-1.853.848-2.413.1-.267.174-.475.225-.623a1.068,1.068,0,0,1,.081-.2Z" transform="translate(137.401 29.728)" fill="#ebebeb"/>
            <path id="Shape-9" data-name="Shape" d="M0,0A1.938,1.938,0,0,1,.242.458c.144.3.339.746.572,1.272.466,1.1,1.073,2.629,1.7,4.333L4.13,10.43c.2.522.365.962.5,1.319a2.438,2.438,0,0,1,.165.492,2.434,2.434,0,0,1-.246-.458c-.14-.3-.335-.746-.564-1.3-.458-1.1-1.043-2.642-1.7-4.346S1.077,2.947.636,1.789L.131.471A2.676,2.676,0,0,1,0,0Z" transform="translate(151.257 46.951)" fill="#ebebeb"/>
            <path id="Shape-10" data-name="Shape" d="M0,6c-.025-.055,3.078-1.446,6.932-3.1s7-2.968,7.021-2.9-3.078,1.446-6.932,3.1S.026,6.062,0,6Z" transform="translate(156.735 53.253)" fill="#ebebeb"/>
            <path id="Shape-11" data-name="Shape" d="M0,2.192A2.671,2.671,0,0,1,.522,2.1l1.433-.178c1.2-.148,2.87-.365,4.7-.67S10.129.628,11.317.377L12.728.085A2.76,2.76,0,0,1,13.25,0a2.12,2.12,0,0,1-.5.17c-.331.093-.806.22-1.4.36-1.183.288-2.828.644-4.664.946s-3.506.5-4.723.606c-.606.055-1.1.093-1.437.106a2.319,2.319,0,0,1-.526,0Z" transform="translate(149.701 74.295)" fill="#ebebeb"/>
            <path id="Shape-12" data-name="Shape" d="M0,0A2.34,2.34,0,0,1,.331.365L1.179,1.4c.7.886,1.37,2.468,2.68,3.481C4.893,6.254,5.822,7.5,6.483,8.408l.776,1.085a1.942,1.942,0,0,1,.259.424,2.221,2.221,0,0,1-.326-.365c-.229-.284-.5-.632-.848-1.039-.7-.886-1.641-2.12-2.675-3.485S1.7,2.417,1.039,1.509L.267.416A2.073,2.073,0,0,1,0,0Z" transform="translate(142.298 66.447)" fill="#ebebeb"/>
            <path id="Shape-13" data-name="Shape" d="M0,0A3.9,3.9,0,0,1,.424.471L1.5,1.8c.895,1.128,2.12,2.7,3.468,4.435S7.509,9.557,8.378,10.71L9.4,12.084a3.578,3.578,0,0,1,.348.522,3.163,3.163,0,0,1-.424-.471l-1.073-1.31c-.9-1.128-2.12-2.7-3.468-4.439S2.234,3.066,1.361,1.912L.352.522A3.172,3.172,0,0,1,0,0Z" transform="translate(134.158 80.871)" fill="#ebebeb"/>
            <path id="Shape-14" data-name="Shape" d="M0,3.235A4.639,4.639,0,0,1,.657,3.1l1.806-.288C3.986,2.569,6.089,2.222,8.4,1.772s4.393-.9,5.9-1.247l1.785-.4A3.6,3.6,0,0,1,16.74,0,4.74,4.74,0,0,1,16.1.208c-.424.119-1.022.284-1.768.471-1.5.382-3.579.869-5.894,1.314s-4.422.772-5.936.979c-.767.1-1.386.174-1.819.22A3.583,3.583,0,0,1,0,3.235Z" transform="translate(143.744 89.872)" fill="#ebebeb"/>
        </g>
        <g id="Floor--inject-64" transform="translate(10.6 191.962)">
            <path id="Shape-15" data-name="Shape" d="M184.321.212c0,.122-41.264.212-92.156.212S0,.342,0,.212,41.259,0,92.169,0s92.152.106,92.152.212Z" fill="#263238"/>
        </g>
        <g id="Login--inject-64" transform="translate(59.241 27.687)">
            <rect id="Rectangle" width="108.031" height="135.527" transform="translate(0.102 0.093)" fill="#f5f5f5"/>
            <path id="Shape-16" data-name="Shape" d="M.119.093,108.15,0h.089V135.727H0v-.1C.059,55.095.1.971.1.106.1.954.14,55.095.2,135.629l-.1-.1H108.128l-.11.11h0V.131l.093.089Z" fill="#263238"/>
            <path id="Shape-17" data-name="Shape" d="M0,0H1.085V4.923H4.138v.916H0Z" transform="translate(41.722 10.837)"/>
            <path id="Shape-18" data-name="Shape" d="M2.245,4.753A2.244,2.244,0,0,1,0,2.463a2.374,2.374,0,0,1,4.02-1.8A2.375,2.375,0,0,1,2.374,4.749C2.329,4.752,2.287,4.753,2.245,4.753Zm.132-3.54H2.332a1.323,1.323,0,0,0,.04,2.645H2.41A1.293,1.293,0,0,0,3.7,2.463,1.324,1.324,0,0,0,2.377,1.212Z" transform="translate(46.206 11.986)"/>
            <path id="Shape-19" data-name="Shape" d="M2.244,6.187a3.526,3.526,0,0,1-2.03-.639L.68,4.765A2.669,2.669,0,0,0,2.289,5.3h.037c.966,0,1.417-.43,1.417-1.353V3.713a1.971,1.971,0,0,1-1.408.6l-.085,0-.1,0A2.154,2.154,0,0,1,2.153,0l.1,0,.1,0a1.926,1.926,0,0,1,1.44.647V.054L4.785.07V3.831a2.109,2.109,0,0,1-2.4,2.353ZM2.405.724a1.357,1.357,0,0,0,0,2.714l.083,0a1.263,1.263,0,0,0,.87-.345,1.28,1.28,0,0,0,.4-.929A1.357,1.357,0,0,0,2.405.724Z" transform="translate(51.59 12.153)"/>
            <path id="Shape-20" data-name="Shape" d="M1.183,6.438H.14V1.986H1.183v4.45ZM.667,1.23h0A.667.667,0,0,1,0,.626.637.637,0,0,1,.636,0h.03L.712,0a.624.624,0,0,1,.623.6.673.673,0,0,1-.656.631Z" transform="translate(57.6 10.238)"/>
            <path id="Shape-21" data-name="Shape" d="M4.384,1.958V4.5H3.341V2.085c0-.793-.39-1.174-1.056-1.174A1.184,1.184,0,0,0,1.039,2.25V4.5H0V.058H.992V.635A1.921,1.921,0,0,1,2.527,0,1.744,1.744,0,0,1,4.384,1.958Z" transform="translate(60.153 12.166)"/>
            <path id="Shape-22" data-name="Shape" d="M3.865.194a2.188,2.188,0,0,1,.157,1.7,3.85,3.85,0,0,1-.912,1.5,6.784,6.784,0,0,1-3.044,1.7A4.571,4.571,0,0,1,.85,1.924c.606-1,2.319-2.451,3.01-1.73" transform="translate(68.241 7.637)" fill="#1a4f8b"/>
            <path id="Shape-23" data-name="Shape" d="M.008,1.082A1.861,1.861,0,0,1,1.56.005a2.5,2.5,0,0,1,1.81.619,1.051,1.051,0,0,1,.424.763.814.814,0,0,1-.466.661,1.7,1.7,0,0,1-.848.123A3.209,3.209,0,0,1,0,1.082" transform="translate(68.094 13.796)" fill="#1a4f8b"/>
            <path id="Shape-24" data-name="Shape" d="M0,1.635a3.393,3.393,0,0,1,.538-.522A3.46,3.46,0,0,1,1.221.664,7.323,7.323,0,0,1,2.133.24a3.727,3.727,0,0,1,1.8-.208,2.485,2.485,0,0,1,.534.14.6.6,0,0,1,.182.093A3.83,3.83,0,0,0,3.922.121,4.024,4.024,0,0,0,2.175.358a8.9,8.9,0,0,0-.9.4,3.718,3.718,0,0,0-.683.424A5.455,5.455,0,0,1,0,1.635Z" transform="translate(65.656 14.685)" fill="#263238"/>
            <path id="Shape-25" data-name="Shape" d="M5.665,0a2.449,2.449,0,0,1-.2.331c-.131.2-.322.5-.564.848C4.422,1.9,3.74,2.9,2.964,3.977S1.45,6.017.907,6.7c-.271.343-.5.615-.653.8A2.383,2.383,0,0,1,0,7.78a1.874,1.874,0,0,1,.216-.31l.619-.848c.526-.7,1.247-1.658,2.022-2.739L4.842,1.145,5.444.3a2.145,2.145,0,0,1,.22-.3Z" transform="translate(65.237 9.048)" fill="#263238"/>
            <path id="Shape-26" data-name="Shape" d="M1.988,4.442A4.371,4.371,0,0,0,1.4.5C1.2.215.878-.07.555.015S.063.5.021.863A3.723,3.723,0,0,0,1.942,4.527" transform="translate(64.698 9.94)" fill="#1a4f8b"/>
            <path id="Shape-27" data-name="Shape" d="M.04,0A1.487,1.487,0,0,1,.154.165c.068.11.153.271.254.479A4.927,4.927,0,0,1,.888,2.37a3.137,3.137,0,0,1-.093.992,2.841,2.841,0,0,1-.331.767,3,3,0,0,1-.322.424.848.848,0,0,1-.14.14c-.021,0,.165-.233.386-.628a3.192,3.192,0,0,0,.284-.729,3.159,3.159,0,0,0,.081-.954A5.55,5.55,0,0,0,.3.687,7.349,7.349,0,0,1,.04,0Z" transform="translate(65.799 11.431)" fill="#263238"/>
            <path id="Shape-28" data-name="Shape" d="M2.413,3.1v.31H0V0H2.34V.314H.36V1.526H2.124v.305H.36V3.1Z" transform="translate(8.84 27.297)" fill="#263238"/>
            <path id="Shape-29" data-name="Shape" d="M4.206,1.1V2.585H3.863V1.131c0-.538-.276-.818-.738-.818a.848.848,0,0,0-.848.929V2.585H1.933V1.131c0-.538-.276-.818-.742-.818a.848.848,0,0,0-.848.929V2.585H0V.02H.331V.491A1.03,1.03,0,0,1,1.272,0a.92.92,0,0,1,.912.538A1.119,1.119,0,0,1,3.2,0,.967.967,0,0,1,4.206,1.1Z" transform="translate(12.054 28.117)" fill="#263238"/>
            <path id="Shape-30" data-name="Shape" d="M1.019,2.623c-.027,0-.055,0-.082,0C.368,2.62,0,2.327,0,1.874c0-.495.315-.725.992-.725h.8V.992A.636.636,0,0,0,1.06.313H1.053a1.326,1.326,0,0,0-.84.3L.055.356A1.658,1.658,0,0,1,1.062.012H1.1A.911.911,0,0,1,2.154,1v1.59H1.819V2.2A.96.96,0,0,1,1.019,2.623ZM.984,1.386c-.436,0-.657.154-.657.458,0,.285.267.483.649.483l.05,0a.818.818,0,0,0,.763-.519V1.386Z" transform="translate(16.985 28.124)" fill="#263238"/>
            <path id="Shape-31" data-name="Shape" d="M.5,3.617H.077V1.052H.5V3.616ZM.251.492A.25.25,0,0,1,0,.242.246.246,0,0,1,.077.068.248.248,0,0,1,.248,0H.262A.24.24,0,0,1,.429.067.245.245,0,0,1,.5.238a.254.254,0,0,1-.072.18A.251.251,0,0,1,.255.492Z" transform="translate(20 27.085)" fill="#263238"/>
            <path id="Shape-32" data-name="Shape" d="M0,0H.424V3.617H.01Z" transform="translate(21.391 27.085)" fill="#263238"/>
            <path id="Shape-33" data-name="Shape" d="M1.016,2.622c-.028,0-.056,0-.084,0C.366,2.618,0,2.325,0,1.872c0-.495.314-.725.988-.725h.806V.99A.634.634,0,0,0,1.068.311H1.057a1.32,1.32,0,0,0-.836.3L.064.354A1.65,1.65,0,0,1,1.071.01h.036A.921.921,0,0,1,1.242,0,.912.912,0,0,1,2.15,1V2.592H1.819v-.4A.967.967,0,0,1,1.016,2.622ZM.988,1.384c-.443,0-.658.15-.658.458,0,.285.267.483.649.483h.049a.82.82,0,0,0,.766-.519V1.384Z" transform="translate(23.765 28.126)" fill="#263238"/>
            <path id="Shape-34" data-name="Shape" d="M1.276,3.643H1.231a1.306,1.306,0,0,1,0-2.607h.041a1.125,1.125,0,0,1,.939.5V0h.343V3.617h-.33v-.5A1.119,1.119,0,0,1,1.276,3.643ZM1.262,1.429h-.03a.954.954,0,0,0,.03,1.908h.013a.954.954,0,0,0-.012-1.909Z" transform="translate(26.651 27.085)" fill="#263238"/>
            <path id="Shape-35" data-name="Shape" d="M1.269,3.643H1.231a1.306,1.306,0,0,1,0-2.607h.044a1.11,1.11,0,0,1,.932.5V0h.347V3.617h-.33v-.5A1.119,1.119,0,0,1,1.269,3.643Zm-.008-.306h.013a.939.939,0,0,0,.937-1,.954.954,0,0,0-.954-.908H1.226a.954.954,0,0,0,.032,1.908Z" transform="translate(29.958 27.085)" fill="#263238"/>
            <path id="Shape-36" data-name="Shape" d="M1.276,0V.338H1.2a.848.848,0,0,0-.848.946V2.59H0V.025H.335v.5A.962.962,0,0,1,1.276,0Z" transform="translate(33.492 28.116)" fill="#263238"/>
            <path id="Shape-37" data-name="Shape" d="M1.357,2.629A1.356,1.356,0,0,1,0,1.324a1.251,1.251,0,1,1,2.5,0,.43.43,0,0,1,0,.046.524.524,0,0,0,0,.059H.346a.95.95,0,0,0,.948.9l.061,0h.031a1.018,1.018,0,0,0,.758-.339l.2.224A1.361,1.361,0,0,1,1.357,2.629ZM1.255.321a.914.914,0,0,0-.909.85H2.164A.914.914,0,0,0,1.255.321Z" transform="translate(35.109 28.098)" fill="#263238"/>
            <path id="Shape-38" data-name="Shape" d="M0,2.294l.157-.271a1.543,1.543,0,0,0,.912.288c.488,0,.687-.165.687-.424C1.755,1.217.093,1.743.093.73.093.306.454,0,1.107,0a1.7,1.7,0,0,1,.907.237l-.148.28A1.323,1.323,0,0,0,1.107.3C.644.3.441.475.441.721c0,.691,1.662.17,1.662,1.158,0,.424-.39.729-1.06.729A1.7,1.7,0,0,1,0,2.294Z" transform="translate(37.956 28.106)" fill="#263238"/>
            <path id="Shape-39" data-name="Shape" d="M0,2.294l.157-.271a1.556,1.556,0,0,0,.912.288c.488,0,.691-.165.691-.424C1.76,1.217.093,1.743.093.73.093.306.454,0,1.111,0a1.726,1.726,0,0,1,.907.237l-.153.28A1.306,1.306,0,0,0,1.111.3C.644.3.441.475.441.721c0,.691,1.662.17,1.662,1.158,0,.424-.39.729-1.056.729A1.717,1.717,0,0,1,0,2.294Z" transform="translate(40.339 28.107)" fill="#263238"/>
            <path id="Shape-40" data-name="Shape" d="M1.357,2.612A1.356,1.356,0,0,1,0,1.307,1.238,1.238,0,0,1,1.235,0H1.3A1.224,1.224,0,0,1,2.516,1.307a.207.207,0,0,0-.022.105H.349a.957.957,0,0,0,.32.655.947.947,0,0,0,.628.238l.061,0h.034a1.008,1.008,0,0,0,.75-.335l.2.224A1.364,1.364,0,0,1,1.357,2.612ZM1.259.3a.915.915,0,0,0-.91.85H2.168A.914.914,0,0,0,1.259.3Z" transform="translate(12.693 38.427)" fill="#e0e0e0"/>
            <path id="Shape-41" data-name="Shape" d="M2.022,2.586l-.806-1.06L.39,2.586H0L1.013,1.272.047,0h.39l.772,1L1.98.042h.377L1.395,1.314,2.417,2.629Z" transform="translate(15.438 38.414)" fill="#e0e0e0"/>
            <path id="Shape-42" data-name="Shape" d="M1.014,2.623c-.027,0-.055,0-.082,0C.366,2.62,0,2.327,0,1.874c0-.495.314-.725.988-.725H1.8V.992A.639.639,0,0,0,1.077.313H1.066a1.321,1.321,0,0,0-.837.3L.076.355a1.621,1.621,0,0,1,1-.348H1.12A.918.918,0,0,1,1.24,0,.917.917,0,0,1,2.15,1.017V2.595H1.819V2.2A.972.972,0,0,1,1.014,2.623ZM1,1.411c-.442,0-.657.151-.657.463,0,.285.267.483.649.483l.05,0A.824.824,0,0,0,1.8,1.835V1.411Z" transform="translate(18.168 38.406)" fill="#e0e0e0"/>
            <path id="Shape-43" data-name="Shape" d="M4.219,1.092V2.568H3.863V1.126c0-.538-.276-.818-.738-.818a.848.848,0,0,0-.848.929V2.568H1.933V1.126c0-.538-.276-.818-.742-.818a.848.848,0,0,0-.848.929V2.568H0V.024H.331V.49A1.039,1.039,0,0,1,1.272,0a.924.924,0,0,1,.912.543A1.119,1.119,0,0,1,3.2,0a.971.971,0,0,1,1.022,1.09Z" transform="translate(21.272 38.433)" fill="#e0e0e0"/>
            <path id="Shape-44" data-name="Shape" d="M.344,3.52H0V.022H.33V.531A1.12,1.12,0,0,1,1.278,0h.066A1.245,1.245,0,0,1,2.59,1.294,1.242,1.242,0,0,1,1.348,2.6H1.282a1.114,1.114,0,0,1-.939-.51V3.519Zm.945-1.229H1.3A.958.958,0,0,0,1.286.374H1.259a.958.958,0,0,0,.026,1.916Z" transform="translate(26.441 38.435)" fill="#e0e0e0"/>
            <path id="Shape-45" data-name="Shape" d="M0,0H.424V3.6H0Z" transform="translate(29.735 37.397)" fill="#e0e0e0"/>
            <path id="Shape-46" data-name="Shape" d="M1.357,2.629A1.356,1.356,0,0,1,0,1.324a1.251,1.251,0,1,1,2.5,0c0,.014,0,.03,0,.046s0,.039,0,.059H.346a.957.957,0,0,0,.952.893l.061,0h.033a1.011,1.011,0,0,0,.751-.335l.2.224A1.361,1.361,0,0,1,1.357,2.629ZM1.257.259a.913.913,0,0,0-.912.912H2.169A.913.913,0,0,0,1.257.259Z" transform="translate(30.789 38.41)" fill="#e0e0e0"/>
            <path id="Shape-47" data-name="Shape" d="M2.223,4.423H2.21A2.209,2.209,0,1,1,2.208,0c.048,0,.093,0,.138,0a2.119,2.119,0,0,1,2.12,2.163c0,.838-.3,1.319-.81,1.319H3.626a.522.522,0,0,1-.521-.531,1.092,1.092,0,0,1-.934.531H2.129a1.272,1.272,0,0,1,0-2.518h.04a1.088,1.088,0,0,1,.927.514v-.5h.318V2.824c0,.321.188.369.3.369.311,0,.5-.387.5-1.035A1.858,1.858,0,0,0,2.356.249c-.048,0-.1,0-.146.006l-.093,0a1.963,1.963,0,0,0,0,3.926l.091,0a2.138,2.138,0,0,0,.937-.217l.081.238A2.339,2.339,0,0,1,2.223,4.423ZM2.175,1.34H2.14A.928.928,0,0,0,2.172,3.2H2.2a.906.906,0,0,0,.9-.988v.008A.927.927,0,0,0,2.175,1.34Z" transform="translate(33.834 37.566)" fill="#e0e0e0"/>
            <path id="Shape-48" data-name="Shape" d="M1.309,3.561a1.8,1.8,0,0,1-1.122-.4L.361,2.9a1.532,1.532,0,0,0,.976.352h.037c.645,0,.946-.3.946-.933V2a1.16,1.16,0,0,1-.951.5h-.05l-.073,0A1.247,1.247,0,0,1,.179.6,1.254,1.254,0,0,1,1.247,0l.073,0h.049a1.159,1.159,0,0,1,.964.514V.032h.322V2.288A1.109,1.109,0,0,1,1.383,3.56ZM1.341.244a.976.976,0,0,0-.9,1.34.97.97,0,0,0,.9.61l.06,0a.915.915,0,0,0,.915-.947.976.976,0,0,0-.975-1Z" transform="translate(38.753 38.425)" fill="#e0e0e0"/>
            <path id="Shape-49" data-name="Shape" d="M4.219,1.092V2.568H3.871V1.126c0-.538-.271-.818-.738-.818a.848.848,0,0,0-.848.929V2.568H1.938V1.126c0-.538-.271-.818-.742-.818a.848.848,0,0,0-.848.929V2.568H0V.024H.331V.49A1.043,1.043,0,0,1,1.272,0a.929.929,0,0,1,.916.543A1.115,1.115,0,0,1,3.2,0a.971.971,0,0,1,1.018,1.09Z" transform="translate(42.392 38.433)" fill="#e0e0e0"/>
            <path id="Shape-50" data-name="Shape" d="M1.021,2.624c-.028,0-.056,0-.084,0C.368,2.62,0,2.327,0,1.874c0-.494.314-.724.988-.724H1.8V.992A.633.633,0,0,0,1.077.314H1.058a1.294,1.294,0,0,0-.83.3L.072.356a1.63,1.63,0,0,1,1-.349h.039A.924.924,0,0,1,1.238,0a.914.914,0,0,1,.641.26.927.927,0,0,1,.271.758V2.595H1.819V2.2A.959.959,0,0,1,1.021,2.624ZM1,1.412c-.442,0-.657.151-.657.462,0,.285.267.483.649.483l.052,0A.822.822,0,0,0,1.8,1.836V1.412Z" transform="translate(47.335 38.406)" fill="#e0e0e0"/>
            <path id="Shape-51" data-name="Shape" d="M.5,3.6H.081V1.052H.5V3.6ZM.258.492h0A.253.253,0,0,1,0,.242.25.25,0,0,1,.251,0h.01A.249.249,0,0,1,.431.066.248.248,0,0,1,.509.238a.251.251,0,0,1-.25.255Z" transform="translate(50.346 37.397)" fill="#e0e0e0"/>
            <path id="Shape-52" data-name="Shape" d="M0,0H.424V3.6H0Z" transform="translate(51.737 37.397)" fill="#e0e0e0"/>
            <path id="Shape-53" data-name="Shape" d="M0,.263A.259.259,0,0,1,.259,0,.263.263,0,0,1,.526.263.267.267,0,0,1,.259.53.263.263,0,0,1,0,.263Z" transform="translate(52.822 40.509)" fill="#e0e0e0"/>
            <path id="Shape-54" data-name="Shape" d="M0,1.307A1.272,1.272,0,0,1,1.323,0a1.132,1.132,0,0,1,1,.509L2.07.688A.878.878,0,0,0,1.323.307a1,1,0,0,0,0,2,.848.848,0,0,0,.746-.373l.259.174a1.132,1.132,0,0,1-1,.509A1.272,1.272,0,0,1,0,1.307Z" transform="translate(53.75 38.421)" fill="#e0e0e0"/>
            <path id="Shape-55" data-name="Shape" d="M1.271,2.612A1.271,1.271,0,0,1,0,1.306,1.306,1.306,0,1,1,1.307,2.612ZM1.307.395H1.279A.954.954,0,0,0,1.307,2.3h.019a.937.937,0,0,0,.935-1A.953.953,0,0,0,1.307.395Z" transform="translate(56.451 38.423)" fill="#e0e0e0"/>
            <path id="Shape-56" data-name="Shape" d="M4.219,1.092V2.568H3.871V1.126c0-.538-.271-.818-.738-.818a.848.848,0,0,0-.848.929V2.568H1.938V1.126c0-.538-.271-.818-.742-.818a.848.848,0,0,0-.848.929V2.568H0V.024H.331V.49A1.043,1.043,0,0,1,1.272,0a.92.92,0,0,1,.912.543A1.128,1.128,0,0,1,3.2,0a.971.971,0,0,1,1.018,1.09Z" transform="translate(59.784 38.433)" fill="#e0e0e0"/>
            <path id="Shape-57" data-name="Shape" d="M91.093,11.372a.75.75,0,0,0,.471-.2c.31-.242.178-.814.2-1.484,0-1.365,0-3.392-.021-5.961V1.132a2.264,2.264,0,0,0-.034-.543.649.649,0,0,0-.343-.382,1.242,1.242,0,0,0-.555-.059H73.191L.823.178A.594.594,0,0,0,.344.42.823.823,0,0,0,.229.988v9.769a.577.577,0,0,0,.314.424.555.555,0,0,0,.259.064H28.574l32.534.025,21.934.034L89,11.325h0l-5.961.021-21.934.034-32.534.025H.8a.806.806,0,0,1-.789-.661,4.918,4.918,0,0,1,0-.661V1.03a3.417,3.417,0,0,1,0-.348A.763.763,0,0,1,.157.335.81.81,0,0,1,.815,0L73.183.034H90.8a1.327,1.327,0,0,1,.6.072A.742.742,0,0,1,91.8.53a2.217,2.217,0,0,1,.038.572V3.7c0,2.586,0,4.6-.021,5.961v.9a.734.734,0,0,1-.22.644.645.645,0,0,1-.5.165Z" transform="translate(8.166 34.034)" fill="#e0e0e0"/>
            <path id="Shape-58" data-name="Shape" d="M.36,3.393H0V0H1.333c.838,0,1.338.43,1.338,1.15S2.15,2.316,1.276,2.316H.36V3.392ZM.36.3V2h.908C1.935,2,2.3,1.7,2.3,1.15h.009A.792.792,0,0,0,2.1.57,1.132,1.132,0,0,0,1.268.3Z" transform="translate(8.84 52.927)" fill="#263238"/>
            <path id="Shape-59" data-name="Shape" d="M1.018,2.625c-.027,0-.055,0-.082,0C.368,2.622,0,2.329,0,1.876c0-.491.324-.73.992-.73h.814V.989c0-.435-.259-.674-.729-.674H1.062a1.307,1.307,0,0,0-.833.3L.072.357a1.634,1.634,0,0,1,1-.348h.039a.911.911,0,0,1,1.039,1V2.6H1.819V2.2A.962.962,0,0,1,1.018,2.625ZM1,1.4c-.436,0-.657.154-.657.458,0,.285.266.483.648.483l.056,0a.819.819,0,0,0,.759-.519V1.4Z" transform="translate(11.978 53.724)" fill="#263238"/>
            <path id="Shape-60" data-name="Shape" d="M0,2.3l.157-.271a1.573,1.573,0,0,0,.912.284c.488,0,.687-.165.687-.424,0-.666-1.662-.14-1.662-1.153C.093.31.454,0,1.107,0a1.7,1.7,0,0,1,.907.242L1.866.518A1.31,1.31,0,0,0,1.107.3C.644.3.441.479.441.721c0,.7,1.662.174,1.662,1.158,0,.424-.39.734-1.06.734A1.7,1.7,0,0,1,0,2.3Z" transform="translate(14.713 53.729)" fill="#263238"/>
            <path id="Shape-61" data-name="Shape" d="M0,2.3l.153-.271a1.59,1.59,0,0,0,.916.284c.488,0,.687-.165.687-.424,0-.666-1.666-.14-1.666-1.153C.089.31.454,0,1.107,0a1.726,1.726,0,0,1,.907.242L1.861.517A1.306,1.306,0,0,0,1.107.3C.64.3.437.479.437.721c0,.7,1.662.174,1.662,1.158,0,.424-.39.734-1.056.734A1.7,1.7,0,0,1,0,2.3Z" transform="translate(17.1 53.729)" fill="#263238"/>
            <path id="Shape-62" data-name="Shape" d="M4.21,0,3.239,2.544H2.913L2.1.424l-.81,2.12H.967L0,0H.331l.806,2.179L1.959,0h.3l.823,2.179L3.892,0Z" transform="translate(19.347 53.755)" fill="#263238"/>
            <path id="Shape-63" data-name="Shape" d="M1.271,2.612A1.271,1.271,0,0,1,0,1.3a1.306,1.306,0,1,1,1.306,1.31ZM1.309.395H1.277A.954.954,0,0,0,1.307,2.3h.019a.938.938,0,0,0,.935-1A.953.953,0,0,0,1.309.395Z" transform="translate(23.743 53.734)" fill="#263238"/>
            <path id="Shape-64" data-name="Shape" d="M1.28,0V.342H1.2a.848.848,0,0,0-.848.95V2.6H0V.054H.331v.5A.971.971,0,0,1,1.28,0Z" transform="translate(27.072 53.718)" fill="#263238"/>
            <path id="Shape-65" data-name="Shape" d="M1.346,3.648h-.04a1.306,1.306,0,0,1,0-2.612H1.34a1.124,1.124,0,0,1,.942.509V0h.343V3.621h-.33V3.112A1.114,1.114,0,0,1,1.346,3.648Zm-.01-.31h.013a.937.937,0,0,0,.936-1,.953.953,0,0,0-.953-.908H1.3a.954.954,0,0,0,.032,1.908Z" transform="translate(28.667 52.699)" fill="#263238"/>
            <path id="Shape-66" data-name="Shape" d="M2.417,3.1v.314H0V0H2.357V.314H.365V1.531H2.128v.305H.365V3.108Z" transform="translate(13.025 63.536)" fill="#e0e0e0"/>
            <path id="Shape-67" data-name="Shape" d="M2.345,1.1V2.589H2V1.134A.717.717,0,0,0,1.23.316a.848.848,0,0,0-.9.924V2.589H0V.023H.331V.494A1.077,1.077,0,0,1,1.306,0,.979.979,0,0,1,2.345,1.1Z" transform="translate(16.231 64.365)" fill="#e0e0e0"/>
            <path id="Shape-68" data-name="Shape" d="M1.751,2.972a.823.823,0,0,1-.543.182.678.678,0,0,1-.75-.746V.856H0V.564H.458V0H.806V.564h.78V.856H.806V2.387a.424.424,0,0,0,.424.466.564.564,0,0,0,.382-.131Z" transform="translate(19.118 63.825)" fill="#e0e0e0"/>
            <path id="Shape-69" data-name="Shape" d="M1.357,2.612A1.357,1.357,0,0,1,0,1.3,1.233,1.233,0,0,1,1.232,0H1.3A1.222,1.222,0,0,1,2.516,1.3a.21.21,0,0,0-.022.106H.349a.951.951,0,0,0,.949.9l.061,0h.034a1.008,1.008,0,0,0,.75-.335l.2.224A1.364,1.364,0,0,1,1.357,2.612ZM1.259.3a.915.915,0,0,0-.91.85H2.168A.914.914,0,0,0,1.259.3Z" transform="translate(21.143 64.367)" fill="#e0e0e0"/>
            <path id="Shape-70" data-name="Shape" d="M1.276,0V.338H1.191a.848.848,0,0,0-.848.946v1.31H0V.029H.331v.5A.971.971,0,0,1,1.276,0Z" transform="translate(24.367 64.364)" fill="#e0e0e0"/>
            <path id="Shape-71" data-name="Shape" d="M.347,3.533H0V.022H.33v.5A1.124,1.124,0,0,1,1.285,0h.07A1.241,1.241,0,0,1,2.595,1.3,1.246,1.246,0,0,1,1.349,2.613H1.287A1.117,1.117,0,0,1,.347,2.1V3.532ZM1.3.28A.958.958,0,0,0,.339,1.3a.958.958,0,1,0,1.913,0A.958.958,0,0,0,1.3.28Z" transform="translate(27.585 64.367)" fill="#e0e0e0"/>
            <path id="Shape-72" data-name="Shape" d="M1.021,2.625c-.028,0-.056,0-.084,0C.368,2.622,0,2.328,0,1.875c0-.491.323-.729.988-.729H1.8V.989A.634.634,0,0,0,1.077.311H1.066A1.3,1.3,0,0,0,.229.616L.072.357a1.624,1.624,0,0,1,1-.348h.042A.916.916,0,0,1,1.247,0a.9.9,0,0,1,.639.263.919.919,0,0,1,.264.769v1.59H1.819V2.2A.957.957,0,0,1,1.021,2.625ZM1,1.426c-.439,0-.662.154-.662.458,0,.285.267.483.649.483l.05,0A.818.818,0,0,0,1.8,1.85V1.426Z" transform="translate(30.659 64.333)" fill="#e0e0e0"/>
            <path id="Shape-73" data-name="Shape" d="M0,2.3l.157-.276a1.543,1.543,0,0,0,.912.288c.488,0,.687-.165.687-.424,0-.666-1.662-.14-1.662-1.153C.093.31.454,0,1.107,0a1.768,1.768,0,0,1,.907.237l-.153.28A1.306,1.306,0,0,0,1.107.3C.644.3.437.479.437.721c0,.7,1.666.174,1.666,1.158,0,.445-.39.734-1.06.734A1.726,1.726,0,0,1,0,2.3Z" transform="translate(33.394 64.363)" fill="#e0e0e0"/>
            <path id="Shape-74" data-name="Shape" d="M0,2.3l.157-.276a1.543,1.543,0,0,0,.912.288c.488,0,.687-.165.687-.424,0-.666-1.662-.14-1.662-1.153C.093.31.454,0,1.107,0a1.743,1.743,0,0,1,.907.237l-.148.28A1.323,1.323,0,0,0,1.107.3C.644.3.441.479.441.721c0,.7,1.662.174,1.662,1.158,0,.445-.39.734-1.06.734A1.734,1.734,0,0,1,0,2.3Z" transform="translate(35.777 64.363)" fill="#e0e0e0"/>
            <path id="Shape-75" data-name="Shape" d="M4.227,0,3.239,2.565H2.913L2.1.445l-.81,2.12H.967L0,0H.335l.8,2.179L1.963,0h.3l.818,2.179L3.892,0Z" transform="translate(38.007 64.389)" fill="#e0e0e0"/>
            <path id="Shape-76" data-name="Shape" d="M1.271,2.612A1.271,1.271,0,0,1,0,1.3a1.306,1.306,0,1,1,1.306,1.31Zm.036-.31h.016a.937.937,0,0,0,.933-1A.952.952,0,0,0,1.305.395H1.272A.954.954,0,0,0,1.3,2.3Z" transform="translate(42.425 64.367)" fill="#e0e0e0"/>
            <path id="Shape-77" data-name="Shape" d="M1.276,0V.338H1.191a.848.848,0,0,0-.848.946v1.31H0V.029H.331v.5A.971.971,0,0,1,1.276,0Z" transform="translate(45.758 64.364)" fill="#e0e0e0"/>
            <path id="Shape-78" data-name="Shape" d="M1.346,3.648h-.04a1.306,1.306,0,0,1,0-2.612h.043a1.1,1.1,0,0,1,.932.509V0l.347,0V3.625H2.3V3.112A1.122,1.122,0,0,1,1.346,3.648ZM1.338,1.433H1.306a.954.954,0,0,0,.03,1.907h.016a.954.954,0,0,0-.014-1.908Z" transform="translate(47.344 63.329)" fill="#e0e0e0"/>
            <path id="Shape-79" data-name="Shape" d="M.365.314v1.34H2.128v.314H.365v1.45H0V0H2.345V.314Z" transform="translate(78.194 63.536)" fill="#1a4f8b"/>
            <path id="Shape-80" data-name="Shape" d="M1.271,2.612A1.271,1.271,0,0,1,0,1.3a1.306,1.306,0,1,1,1.31,1.31ZM1.31,2.3h.016a.937.937,0,0,0,.934-1A.953.953,0,0,0,1.309.395H1.275A.954.954,0,0,0,1.307,2.3Z" transform="translate(80.869 64.367)" fill="#1a4f8b"/>
            <path id="Shape-81" data-name="Shape" d="M1.276,0V.338H1.2a.848.848,0,0,0-.848.946v1.31H0V.028H.335v.5A.971.971,0,0,1,1.276,0Z" transform="translate(84.202 64.364)" fill="#1a4f8b"/>
            <path id="Shape-82" data-name="Shape" d="M1.319,3.561a1.828,1.828,0,0,1-1.131-.4L.365,2.9a1.519,1.519,0,0,0,.972.352h.037c.645,0,.946-.3.946-.929v-.33a1.145,1.145,0,0,1-.947.5H1.319l-.073,0A1.247,1.247,0,0,1,.179.6,1.254,1.254,0,0,1,1.247,0l.073,0h.054a1.157,1.157,0,0,1,.964.514V.023l.318.013V2.288A1.109,1.109,0,0,1,1.382,3.559ZM1.345.244A.975.975,0,0,0,1.34,2.194l.06,0a.921.921,0,0,0,.92-.95.976.976,0,0,0-.975-1Z" transform="translate(85.8 64.353)" fill="#1a4f8b"/>
            <path id="Shape-83" data-name="Shape" d="M1.271,2.612A1.271,1.271,0,0,1,0,1.3a1.306,1.306,0,1,1,1.306,1.31Zm.036-.31h.023a.936.936,0,0,0,.935-1H2.256A.951.951,0,0,0,1.305.395H1.272A.954.954,0,0,0,1.3,2.3Z" transform="translate(89.158 64.367)" fill="#1a4f8b"/>
            <path id="Shape-84" data-name="Shape" d="M1.751,2.972a.814.814,0,0,1-.543.182.683.683,0,0,1-.75-.746V.856H0V.564H.479V0H.827V.564h.78V.856H.827V2.387a.424.424,0,0,0,.424.466.56.56,0,0,0,.377-.131Z" transform="translate(92.072 63.825)" fill="#1a4f8b"/>
            <path id="Shape-85" data-name="Shape" d="M1.251,3.472A.251.251,0,0,1,1.076,3.4.255.255,0,0,1,1,3.217h.013a.245.245,0,0,1,.074-.179.247.247,0,0,1,.174-.071H1.27a.255.255,0,0,1,.176.07.25.25,0,0,1,.076.18.259.259,0,0,1-.258.255ZM1.442,2.42H1.081a1.061,1.061,0,0,1,.483-.857A.885.885,0,0,0,1.976.9c0-.36-.309-.593-.788-.593l-.072,0A1.124,1.124,0,0,0,.258.7L0,.508A1.485,1.485,0,0,1,1.119,0l.093,0C1.9,0,2.336.336,2.336.851a1.084,1.084,0,0,1-.48.871.908.908,0,0,0-.414.7Z" transform="translate(93.967 63.508)" fill="#1a4f8b"/>
            <path id="Shape-86" data-name="Shape" d="M91.093,11.389a.746.746,0,0,0,.471-.2c.31-.237.178-.814.2-1.48,0-1.37,0-3.392-.021-5.966V1.145a2.23,2.23,0,0,0-.034-.538.67.67,0,0,0-.343-.386,1.306,1.306,0,0,0-.555-.059H73.191L.823.2A.581.581,0,0,0,.344.437.818.818,0,0,0,.229,1V10.8a.589.589,0,0,0,.314.424.611.611,0,0,0,.259.064H61.107l21.934.034h0l-21.934.034-32.534.025H.8a.806.806,0,0,1-.789-.657,4.981,4.981,0,0,1,0-.666V1.03a3.391,3.391,0,0,1,0-.348A.776.776,0,0,1,.157.331.806.806,0,0,1,.815,0L73.183.03H90.8A1.391,1.391,0,0,1,91.4.1.75.75,0,0,1,91.8.551a2.184,2.184,0,0,1,.038.568V3.714c0,2.586,0,4.6-.021,5.966v.9a.729.729,0,0,1-.229.6.661.661,0,0,1-.492.212Z" transform="translate(8.166 59.958)" fill="#e0e0e0"/>
            <path id="Shape-87" data-name="Shape" d="M0,3.019l.144-.28a1.658,1.658,0,0,0,1.124.424c.64,0,.92-.267.92-.6C2.188,1.624.068,2.2.068.933.068.433.458,0,1.34,0A1.908,1.908,0,0,1,2.4.3L2.277.59A1.772,1.772,0,0,0,1.34.305c-.628,0-.9.28-.9.619,0,.937,2.12.373,2.12,1.615,0,.5-.4.933-1.272.933A1.861,1.861,0,0,1,0,3.019Z" transform="translate(44.931 109.214)" fill="#263238"/>
            <path id="Shape-88" data-name="Shape" d="M.5,3.6H.076V1.056H.5V3.6ZM.246.491h0A.246.246,0,0,1,0,.246.25.25,0,0,1,.251,0a.247.247,0,0,1,.24.251A.244.244,0,0,1,.246.491Z" transform="translate(48.107 109.019)" fill="#263238"/>
            <path id="Shape-89" data-name="Shape" d="M2.357,1.11V2.615H2.014V1.161A.717.717,0,0,0,1.242.343a.848.848,0,0,0-.9.924V2.615H0V.071H.331V.5A1.081,1.081,0,0,1,1.306,0,.979.979,0,0,1,2.357,1.11Z" transform="translate(49.489 110.042)" fill="#263238"/>
            <path id="Shape-90" data-name="Shape" d="M1.319,3.561a1.829,1.829,0,0,1-1.132-.4L.365,2.9a1.519,1.519,0,0,0,.972.352h.037c.645,0,.946-.3.946-.929V2a1.16,1.16,0,0,1-.951.5h-.05l-.073,0A1.247,1.247,0,0,1,.179.6,1.254,1.254,0,0,1,1.247,0l.073,0h.052a1.163,1.163,0,0,1,.966.514V.023l.318.013V2.288A1.109,1.109,0,0,1,1.383,3.559ZM1.341.243h0a.975.975,0,1,0,0,1.95l.061,0a.915.915,0,0,0,.914-.943A.976.976,0,0,0,1.341.244Z" transform="translate(52.529 110.039)" fill="#263238"/>
            <path id="Shape-91" data-name="Shape" d="M2.342.021V2.565H2.012V2.095a1.026,1.026,0,0,1-.924.5,1,1,0,0,1-1.081-1.1V0H.354V1.454c0,.543.28.823.767.823a.848.848,0,0,0,.873-.933V0Z" transform="translate(57.399 110.053)" fill="#263238"/>
            <path id="Shape-92" data-name="Shape" d="M.347,3.533H0V.022H.335v.5A1.11,1.11,0,0,1,1.283,0h.073A1.241,1.241,0,0,1,2.595,1.3,1.246,1.246,0,0,1,1.349,2.613H1.292A1.127,1.127,0,0,1,.347,2.1V3.532ZM1.293,2.3h.026a.946.946,0,0,0,.945-1H2.247A.955.955,0,0,0,1.291.387h-.03A.958.958,0,0,0,1.29,2.3Z" transform="translate(60.7 110.053)" fill="#263238"/>
            <path id="Shape-93" data-name="Shape" d="M91.084,11.389a.75.75,0,0,0,.471-.2c.31-.242.178-.818.2-1.484,0-1.37,0-3.392-.021-5.966V1.145A2.231,2.231,0,0,0,91.7.606.67.67,0,0,0,91.36.221,1.306,1.306,0,0,0,90.8.161H73.183L.815.2A.594.594,0,0,0,.335.437.818.818,0,0,0,.221,1V10.8a.581.581,0,0,0,.314.424.556.556,0,0,0,.259.064H28.565L61.1,11.3l21.934.038h5.961l-5.961.021L61.1,11.4l-32.534.025H.793a.848.848,0,0,1-.356-.089.789.789,0,0,1-.424-.572,4.981,4.981,0,0,1,0-.666V1.03a3.391,3.391,0,0,1,0-.348A.776.776,0,0,1,.157.331.806.806,0,0,1,.815,0L73.183.03H90.8A1.391,1.391,0,0,1,91.4.1.751.751,0,0,1,91.8.551a2.183,2.183,0,0,1,.038.568q0,.28,0,.547V3.714c0,2.586,0,4.6-.021,5.966v.9a.725.725,0,0,1-.229.6.661.661,0,0,1-.5.212Z" transform="translate(8.174 105.457)" fill="#263238"/>
            <path id="Rectangle-2" data-name="Rectangle" d="M0,5.639V4.694A4.522,4.522,0,0,1,1.375,1.375,4.522,4.522,0,0,1,4.694,0H86.979A4.522,4.522,0,0,1,90.3,1.375a4.522,4.522,0,0,1,1.375,3.319V6.585A4.522,4.522,0,0,1,90.3,9.9a4.522,4.522,0,0,1-3.319,1.375H4.694A4.522,4.522,0,0,1,1.375,9.9,4.522,4.522,0,0,1,0,6.585Z" transform="translate(8.281 84.554)" fill="#1a4f8b"/>
            <path id="Shape-94" data-name="Shape" d="M0,0H.36V3.1H2.273v.314H0Z" transform="translate(47.111 88.188)" fill="#fff"/>
            <path id="Shape-95" data-name="Shape" d="M1.271,2.612A1.272,1.272,0,0,1,0,1.306,1.306,1.306,0,1,1,1.31,2.612Zm.039-.306h.013a.936.936,0,0,0,.936-1A.953.953,0,0,0,1.307.4H1.275a.954.954,0,0,0,.032,1.908Z" transform="translate(49.612 89.015)" fill="#fff"/>
            <path id="Shape-96" data-name="Shape" d="M1.236,3.556a1.794,1.794,0,0,1-1.121-.4L.293,2.9a1.506,1.506,0,0,0,.968.352H1.3c.645,0,.946-.3.946-.932V1.99a1.16,1.16,0,0,1-.951.5H1.242A1.242,1.242,0,1,1,1.245,0H1.3a1.148,1.148,0,0,1,.959.515v-.5l.322.009V2.282A1.109,1.109,0,0,1,1.31,3.554ZM1.269.238h0a.975.975,0,1,0,0,1.95l.061,0a.916.916,0,0,0,.915-.943A.975.975,0,0,0,1.269.239Z" transform="translate(52.724 89.009)" fill="#fff"/>
            <path id="Shape-97" data-name="Shape" d="M.5,3.633H.077V1.065H.5V3.632ZM.255.509A.254.254,0,1,1,.509.255.255.255,0,0,1,.255.509Z" transform="translate(57.473 87.972)" fill="#fff"/>
            <path id="Shape-98" data-name="Shape" d="M2.362,1.1V2.59H2.014V1.135A.721.721,0,0,0,1.242.313a.848.848,0,0,0-.9.929V2.59H0V.02H.331V.5A1.073,1.073,0,0,1,1.306,0,.984.984,0,0,1,2.362,1.1Z" transform="translate(58.864 89.016)" fill="#fff"/>
        </g>
        <g id="Character--inject-64" transform="translate(17.656 54.407)">
            <path id="Shape-99" data-name="Shape" d="M.547,0,0,3.116l.462.1c2.069.424,10.545,2.082,12,1.874,1.628-.233-4.571-2.671-4.571-2.671L8.09,1.1Z" transform="translate(1.556 132.505)" fill="#1a4f8b"/>
            <g id="Group" transform="translate(1.56 133.387)" opacity="0.5">
                <path id="Shape-100" data-name="Shape" d="M2.743,2.582A2.642,2.642,0,0,0,2.027.823,2.544,2.544,0,0,0,.331,0L0,2.12Z" fill="#fff"/>
            </g>
            <g id="Group-2" data-name="Group" transform="translate(1.543 135.456)" opacity="0.5">
                <path id="Shape-101" data-name="Shape" d="M10.905.772s2.15,1,1.815,1.327S3.752,1.09,0,.165L.038,0,10.087,1.645s.394-.92.818-.873Z" fill="#fff"/>
            </g>
            <path id="Shape-102" data-name="Shape" d="M0,0A.466.466,0,0,0,.127.034L.5.114,1.861.386c1.153.225,2.752.509,4.52.784s3.392.488,4.55.628l1.382.157.377.038h.131l-.131-.025-.373-.051L10.939,1.73C9.773,1.573,8.166,1.348,6.4,1.073S3.006.522,1.874.318L.5.076.131.013Z" transform="translate(1.475 135.431)" fill="#263238"/>
            <path id="Shape-103" data-name="Shape" d="M0,1.068A3.311,3.311,0,0,1,.36.454,3.146,3.146,0,0,1,.907,0,1.013,1.013,0,0,0,.288.394,1.051,1.051,0,0,0,0,1.068Z" transform="translate(11.622 136.147)" fill="#263238"/>
            <path id="Shape-104" data-name="Shape" d="M0,.57A1.719,1.719,0,0,0,.287.315C.427.159.516.019.5,0S.351.1.215.256-.018.553,0,.57Z" transform="translate(9.567 135.17)" fill="#263238"/>
            <path id="Shape-105" data-name="Shape" d="M0,.424A1.021,1.021,0,0,0,.3.261C.446.143.552.031.539.005S.4.051.247.169-.012.4,0,.424Z" transform="translate(9.005 134.968)" fill="#263238"/>
            <path id="Shape-106" data-name="Shape" d="M1.662.016a1.785,1.785,0,1,0,.424.021A.882.882,0,0,0,1.662.016Z" transform="translate(7.068 134.532)" fill="#263238"/>
            <path id="Shape-107" data-name="Shape" d="M0,0A.731.731,0,0,0,.424.359a.451.451,0,0,0,.466,0A1.863,1.863,0,0,0,.466.176,1.78,1.78,0,0,0,0,0Z" transform="translate(8.675 134.023)" fill="#263238"/>
            <path id="Shape-108" data-name="Shape" d="M0,.539A1.59,1.59,0,0,0,.488.611,3.082,3.082,0,0,0,1.022.577,1.531,1.531,0,0,0,1.336.5.271.271,0,0,0,1.48.37.2.2,0,0,0,1.437.162.9.9,0,0,0,.3.251a.916.916,0,0,0-.212.3C.055.633.047.679.055.683A1.34,1.34,0,0,1,.339.3.9.9,0,0,1,.8.1.746.746,0,0,1,1.37.225c.068.068,0,.157-.072.191a1.314,1.314,0,0,1-.288.076A3.119,3.119,0,0,1,.488.543c-.3,0-.483,0-.488,0Z" transform="translate(9.926 134.582)" fill="#263238"/>
            <path id="Shape-109" data-name="Shape" d="M.517,1.013A.548.548,0,0,0,.628.687.81.81,0,0,0,.547.31.492.492,0,0,0,.183,0,.191.191,0,0,0,0,.2.572.572,0,0,0,.047.432,1.543,1.543,0,0,0,.229.759c.131.174.242.25.25.242S.395.9.284.725A1.807,1.807,0,0,1,.127.4C.077.288.06.1.183.093S.411.242.471.348A.848.848,0,0,1,.56.687a1.67,1.67,0,0,1-.042.326Z" transform="translate(9.531 134.15)" fill="#263238"/>
            <path id="Shape-110" data-name="Shape" d="M0,.014A2.065,2.065,0,0,1,.555.12,2.468,2.468,0,0,1,1.7.811a2.5,2.5,0,0,1,.594,1.2c.064.339.042.56.059.56a.488.488,0,0,0,.025-.153,2.256,2.256,0,0,0-.021-.424A2.362,2.362,0,0,0,1.764.743,2.4,2.4,0,0,0,.568.052,2.006,2.006,0,0,0,.144,0,.424.424,0,0,0,0,.014Z" transform="translate(1.95 133.373)" fill="#263238"/>
            <path id="Shape-111" data-name="Shape" d="M0,0A4.18,4.18,0,0,0,1.085.323,3.733,3.733,0,0,0,2.2.415c0-.029-.5-.082-1.1-.2S.008-.025,0,0Z" transform="translate(5.368 135.393)" fill="#263238"/>
            <path id="Shape-112" data-name="Shape" d="M.014,0c-.054,0,.065.11.141.233S.274.46.34.464.492.35.34.21.057-.015.014,0Z" transform="translate(3.883 135.161)" fill="#263238"/>
            <path id="Shape-113" data-name="Shape" d="M0,0A.339.339,0,0,0,.139.245C.279.358.374.438.411.422S.411.293.271.175.037-.018,0,0Z" transform="translate(3.438 134.38)" fill="#263238"/>
            <path id="Shape-114" data-name="Shape" d="M0,.051C0,.1.105.117.215.221s.18.222.2.2A.382.382,0,0,0,.259.073C.1-.046,0,.006,0,.051Z" transform="translate(2.696 133.913)" fill="#263238"/>
            <path id="Shape-115" data-name="Shape" d="M0,.038A.652.652,0,0,0,.164.33c.115.1.23.122.255.061S.37.2.255.1.025-.034,0,.038Z" transform="translate(2.141 133.691)" fill="#263238"/>
            <path id="Shape-116" data-name="Shape" d="M0,.9.284,4.053l.475-.021c2.12-.119,10.719-.746,12.076-1.327,1.509-.649-5.088-1.382-5.088-1.382L7.59,0Z" transform="translate(41.874 134.269)" fill="#1a4f8b"/>
            <g id="Group-3" data-name="Group" transform="translate(41.916 136.046)" opacity="0.5">
                <path id="Shape-117" data-name="Shape" d="M2.989,1.912A2.654,2.654,0,0,0,1.84.4,2.582,2.582,0,0,0,0,.042l.237,2.12Z" fill="#fff"/>
            </g>
            <g id="Group-4" data-name="Group" transform="translate(42.158 136.062)" opacity="0.5">
                <path id="Shape-118" data-name="Shape" d="M10.689,0s2.336.4,2.095.806S3.88,2.171,0,2.26V2.09L10.146,1.052s.1-.984.543-1.052Z" fill="#fff"/>
            </g>
            <path id="Shape-119" data-name="Shape" d="M0,1.433H.131l.377-.021L1.9,1.319C3.07,1.23,4.685,1.09,6.47.895S9.862.471,11.024.314l1.37-.225.373-.064A1.016,1.016,0,0,0,12.894,0h-.131l-.369.089L11.011.271C9.85.424,8.238.628,6.458.823s-3.392.348-4.566.454l-1.37.085-.377.034Z" transform="translate(42.031 136.728)" fill="#263238"/>
            <path id="Shape-120" data-name="Shape" d="M.026,1.268A2.969,2.969,0,0,1,.208.581,3.235,3.235,0,0,1,.632,0a1.047,1.047,0,0,0-.5.543.992.992,0,0,0-.11.725Z" transform="translate(52.279 135.973)" fill="#263238"/>
            <path id="Shape-121" data-name="Shape" d="M.008.678A1.007,1.007,0,0,0,.269.356.741.741,0,0,0,.424,0,1.715,1.715,0,0,0,.163.318C.045.5-.024.666.008.678Z" transform="translate(49.92 135.668)" fill="#263238"/>
            <path id="Shape-122" data-name="Shape" d="M0,.481A.8.8,0,0,0,.253.273C.371.142.448.019.431,0S.3.078.18.21-.015.464,0,.481Z" transform="translate(49.271 135.607)" fill="#263238"/>
            <path id="Shape-123" data-name="Shape" d="M0,.348a.306.306,0,0,0,.4,0A.483.483,0,0,0,.793.084a.31.31,0,0,0-.424,0A.5.5,0,0,0,0,.348Z" transform="translate(48.806 135.302)" fill="#263238"/>
            <path id="Shape-124" data-name="Shape" d="M0,.124C.141.376.3.473.458.4.616.437.774.3.907.008A.783.783,0,0,0,.454.081.737.737,0,0,0,0,.124Z" transform="translate(48.616 134.886)" fill="#263238"/>
            <path id="Shape-125" data-name="Shape" d="M0,.789A1.361,1.361,0,0,0,.488.734,2.685,2.685,0,0,0,1,.56,1.438,1.438,0,0,0,1.28.408.271.271,0,0,0,1.386.242a.208.208,0,0,0-.1-.191A.907.907,0,0,0,.212.437.8.8,0,0,0,.089.781a.288.288,0,0,0,0,.136A1.374,1.374,0,0,1,.267.492.848.848,0,0,1,.653.174.759.759,0,0,1,1.238.149c.085.047.064.144,0,.2A1.411,1.411,0,0,1,.979.5,3.333,3.333,0,0,1,.488.687C.187.755,0,.776,0,.789Z" transform="translate(50.108 134.862)" fill="#263238"/>
            <path id="Shape-126" data-name="Shape" d="M.732.891a.492.492,0,0,0,0-.348A.742.742,0,0,0,.558.2.479.479,0,0,0,.134,0,.2.2,0,0,0,.007.243.568.568,0,0,0,.118.45,1.467,1.467,0,0,0,.38.722a.729.729,0,0,0,.3.165A3.165,3.165,0,0,1,.423.671,1.721,1.721,0,0,1,.185.4C.1.306.041.124.16.09S.419.171.5.26a.822.822,0,0,1,.174.3A1.963,1.963,0,0,1,.732.891Z" transform="translate(49.507 134.772)" fill="#263238"/>
            <path id="Shape-127" data-name="Shape" d="M0,.108A3.232,3.232,0,0,1,.564.065,2.4,2.4,0,0,1,2.731,1.431c.153.314.187.534.2.53s0-.059,0-.157a1.8,1.8,0,0,0-.127-.4A2.324,2.324,0,0,0,.581,0,1.79,1.79,0,0,0,.157.057.552.552,0,0,0,0,.108Z" transform="translate(41.955 135.955)" fill="#263238"/>
            <path id="Shape-128" data-name="Shape" d="M0,.365a2.706,2.706,0,0,0,1.124,0A3.029,3.029,0,0,0,2.226.01a8.953,8.953,0,0,0-1.111.2A9.937,9.937,0,0,0,0,.365Z" transform="translate(45.779 136.892)" fill="#263238"/>
            <path id="Shape-129" data-name="Shape" d="M0,.007a1.122,1.122,0,0,0,.185.21c.1.107.164.21.212.206S.437.3.314.17.021-.023,0,.007Z" transform="translate(44.291 137.264)" fill="#263238"/>
            <path id="Shape-130" data-name="Shape" d="M0,.009A.565.565,0,0,0,.174.27C.291.384.4.444.42.418S.364.27.252.156.022-.025,0,.009Z" transform="translate(43.651 136.629)" fill="#263238"/>
            <path id="Shape-131" data-name="Shape" d="M0,.152c0,.067.106,0,.225.1s.2.213.22.157a.5.5,0,0,0-.2-.392C.1-.061-.012.152,0,.152Z" transform="translate(42.814 136.336)" fill="#263238"/>
            <path id="Shape-132" data-name="Shape" d="M0,.068A.425.425,0,0,0,.189.392a.245.245,0,0,0,.234,0A.6.6,0,0,0,.234.068C.121,0,.008-.04,0,.068Z" transform="translate(42.226 136.301)" fill="#263238"/>
            <path id="Shape-133" data-name="Shape" d="M14.229,14.6c-.606-3.244-4.189-5.046-5.588-8.056C8.094,5.38,7.9,4.07,7.3,2.933A5.8,5.8,0,0,0,.225.368L0,.716C1.45,3.76,2.9,5.851,4.342,8.891A10.9,10.9,0,0,1,5.5,12.219a3.649,3.649,0,0,1-1.09,3.218,25.82,25.82,0,0,1-2.5,1.31,4.079,4.079,0,0,0-1.6,3.791,6.865,6.865,0,0,0,1.887,3.816c.933,1.022,2.408,1.9,3.638,1.272A5.537,5.537,0,0,0,7.3,24.146a19.53,19.53,0,0,1,3.392-2.616c2.213-1.607,4.045-4.232,3.54-6.932Z" transform="translate(29.858 0.955)" fill="#263238"/>
            <path id="Shape-134" data-name="Shape" d="M9.642,5.626C8.828,6.368,4.4,10.09,4.4,10.09l-4.4-4C.114,5.761,1.191,3.913,1.314,3.45a3.515,3.515,0,0,0,.11-1.225A5.618,5.618,0,0,0,1.153.716c-.2-.424.237-.873.611-.661A3.909,3.909,0,0,1,2.68,2.963C2.663,4.481,8.616,1,9.464,1.848Z" transform="translate(65.627 25.005)" fill="#ffbe9d"/>
            <path id="Shape-135" data-name="Shape" d="M0,0,14.586,17.456l13.4-12.109,5.843,5.7S17.015,29.544,14.45,29.413,3.172,23.519,3.172,23.519Z" transform="translate(37.464 24.656)" fill="#1a4f8b"/>
            <path id="Shape-136" data-name="Shape" d="M4.306.012a.237.237,0,0,0-.3.14l-3.981,10a.377.377,0,0,0,.191.483l4.706,2.247a.382.382,0,0,0,.513-.2L9.894,2.323a.382.382,0,0,0-.225-.509Z" transform="translate(66.269 22.045)" fill="#263238"/>
            <path id="Polygon" d="M3.646,0,0,8.921l4.931,2.234L8.667,1.7,3.646,0Z" transform="translate(66.801 22.778)" fill="#f5f5f5"/>
            <path id="Shape-137" data-name="Shape" d="M6.182,6.021a6.555,6.555,0,0,1-1.039-.734C4.528,4.8,3.706,4.1,2.845,3.261A30.321,30.321,0,0,1,.759,1.013,6,6,0,0,1,0,0,9.3,9.3,0,0,1,.878.912C1.408,1.484,2.15,2.268,3,3.1S4.651,4.651,5.241,5.164a9.209,9.209,0,0,1,.941.856Z" transform="translate(62.845 32.28)" fill="#263238"/>
            <path id="Shape-138" data-name="Shape" d="M.273.212C.3.238.12.382.142.692a.6.6,0,0,0,.216.424A.551.551,0,0,0,1.206.636.611.611,0,0,0,.939.212.979.979,0,0,0,.455.085.238.238,0,0,1,.6.013a.615.615,0,0,1,.424.064.729.729,0,0,1,.39.513.734.734,0,0,1-1.158.666A.717.717,0,0,1,0,.662a.636.636,0,0,1,.157-.4C.209.221.269.2.273.212Z" transform="translate(64.561 31.495)" fill="#263238"/>
            <path id="Shape-139" data-name="Shape" d="M.307,5.186a2.2,2.2,0,0,1-.216-.759A6.911,6.911,0,0,1,.515.691,2.12,2.12,0,0,1,.9,0,15.264,15.264,0,0,0,.265,2.544,15.446,15.446,0,0,0,.307,5.186Z" transform="translate(51.175 42.028)" fill="#263238"/>
            <path id="Shape-140" data-name="Shape" d="M1.564,5.173a2.222,2.222,0,0,1-.471-.653A8.12,8.12,0,0,1,.016.806,2.3,2.3,0,0,1,.063,0,22.129,22.129,0,0,0,.542,2.667,21.626,21.626,0,0,0,1.564,5.173Z" transform="translate(52.013 41.905)" fill="#263238"/>
            <path id="Polygon-2" data-name="Polygon" d="M2.413,0,0,6l3.612,1.48L6.131,1.348,2.413,0Z" transform="translate(68.12 24.44)" fill="#ebebeb"/>
            <path id="Rectangle-3" data-name="Rectangle" d="M0,.363V.31A.3.3,0,0,1,.091.091.3.3,0,0,1,.31,0H2.625a.3.3,0,0,1,.219.091A.3.3,0,0,1,2.934.31V.416a.3.3,0,0,1-.091.219.3.3,0,0,1-.219.091H.31A.3.3,0,0,1,.091.634.3.3,0,0,1,0,.416Z" transform="matrix(0.923, 0.386, -0.386, 0.923, 69.123, 29.343)" fill="#1a4f8b"/>
            <rect id="Rectangle-4" data-name="Rectangle" width="2.862" height="0.416" transform="translate(70.798 25.421) rotate(20.63)" fill="#455a64"/>
            <rect id="Rectangle-5" data-name="Rectangle" width="3.163" height="0.818" transform="translate(70.151 26.667) rotate(20.63)" fill="#e0e0e0"/>
            <rect id="Rectangle-6" data-name="Rectangle" width="3.163" height="0.818" transform="translate(69.66 27.895) rotate(20.63)" fill="#e0e0e0"/>
            <path id="Shape-141" data-name="Shape" d="M3.346,0c-.683.11-1.514.178-2.2.293A1.272,1.272,0,0,0,.6.475.424.424,0,0,0,.467,1c.106.191.377.208.6.2L2.57,1.149a7.95,7.95,0,0,0-1.9.318c-.28.093-.594.284-.6.581a.555.555,0,0,0,.5.5,6.267,6.267,0,0,0,.789,0s1.03,0,1.073.153c-.64,0-1.492.131-2.12.191-.178,0-.259.254-.3.424A.4.4,0,0,0,.2,3.765a.577.577,0,0,0,.254.025l2.493-.076" transform="translate(71.765 26.853)" fill="#ffbe9d"/>
            <path id="Shape-142" data-name="Shape" d="M9.277.041a8.847,8.847,0,0,1,5.16,1.043c1.921,1.272,8.662,20.581,8.4,26.313s.471,15.841,1.649,20,2.069,40.28-7.208,57.486L0,102.462l5.4-46.4-.551-42.09Z" transform="translate(23.031 23.569)" fill="#1a4f8b"/>
            <g id="Group-5" data-name="Group" transform="translate(23.523 23.569)" opacity="0.3">
                <path id="Shape-143" data-name="Shape" d="M7.789.041a8.859,8.859,0,0,1,5.164,1.043c1.921,1.272,8.658,20.581,8.4,26.313s.466,15.841,1.649,20,2.069,40.28-7.208,57.486L0,102.462l3.918-46.4L3.341,13.977Z"/>
            </g>
            <path id="Shape-144" data-name="Shape" d="M7.394.017S-2.108-1,.431,12.576L2.874,26.865l15.514,9.387c2.095.564.314-9.752,3.468-14.526a5.865,5.865,0,0,0,1.183-3.943c.3-3.116-2.2-5.058-2.544-8.209-.39-4.562-.373-7.089-2.357-7.6L7.4.017" transform="translate(17.567 22.705)" fill="#455a64"/>
            <path id="Shape-145" data-name="Shape" d="M.225,0a4.168,4.168,0,0,0,0,2,8.056,8.056,0,0,0,.848,2.027A17.6,17.6,0,0,1,2.286,6.479,7.806,7.806,0,0,1,2.349,11.4a7.06,7.06,0,0,1-.6,1.378,2.281,2.281,0,0,1-.314.458A12.775,12.775,0,0,0,2.2,11.355a8.014,8.014,0,0,0-.123-4.8A19.051,19.051,0,0,0,.895,4.126a7.7,7.7,0,0,1-.806-2.09A3.782,3.782,0,0,1,.064.526a2.282,2.282,0,0,1,.114-.4C.2.047.217,0,.225,0Z" transform="translate(38.011 31.194)" fill="#263238"/>
            <path id="Shape-146" data-name="Shape" d="M10.74,21.146c-.225-2.336-.424-4.8-.424-4.8s2.968-.8,3.2-4.787a60.527,60.527,0,0,0-.924-10.43V.794C8.081-.546,2.748-.478,0,3.278H0L2.12,22.231a4.093,4.093,0,0,0,4.689,3.46h0a4.311,4.311,0,0,0,3.93-4.545Z" transform="translate(22.739 2.557)" fill="#ffbe9d"/>
            <path id="Shape-147" data-name="Shape" d="M.991.411A.509.509,0,0,1,.567.966.483.483,0,0,1,0,.563.509.509,0,0,1,.427.008a.483.483,0,0,1,.564.4Z" transform="translate(34.354 8.087)" fill="#263238"/>
            <path id="Shape-148" data-name="Shape" d="M2.014.439C1.955.511,1.548.27,1.005.321S.094.69.026.626s0-.148.182-.293A1.386,1.386,0,0,1,.984.007a1.323,1.323,0,0,1,.81.178.5.5,0,0,1,.22.254Z" transform="translate(33.33 7.503)" fill="#263238"/>
            <path id="Shape-149" data-name="Shape" d="M.991.431A.509.509,0,0,1,.567.987.483.483,0,0,1,0,.563.509.509,0,0,1,.427.007.483.483,0,0,1,.991.431Z" transform="translate(28.706 8.8)" fill="#263238"/>
            <path id="Shape-150" data-name="Shape" d="M2.007.44C1.952.512,1.541.266,1,.321S.091.686.023.626.044.474.205.33A1.386,1.386,0,0,1,.981.007a1.331,1.331,0,0,1,.81.174c.178.114.246.225.216.259Z" transform="translate(27.685 8.257)" fill="#263238"/>
            <path id="Shape-151" data-name="Shape" d="M.712,4.49a3.621,3.621,0,0,1,.848-.242c.136-.03.263-.072.276-.165a.666.666,0,0,0-.131-.4L1.191,2.667A18.622,18.622,0,0,1,0,0,17.99,17.99,0,0,1,1.4,2.565l.5,1.022a.8.8,0,0,1,.127.534.343.343,0,0,1-.208.225.8.8,0,0,1-.233.055,3.29,3.29,0,0,1-.873.089Z" transform="translate(31.346 8.031)" fill="#263238"/>
            <path id="Shape-152" data-name="Shape" d="M5.4.886A10.061,10.061,0,0,1,0,0S1.539,2.569,5.436,1.815Z" transform="translate(27.666 18.016)" fill="#eb996e"/>
            <path id="Shape-153" data-name="Shape" d="M1.6.3A.979.979,0,0,0,.687.022.89.89,0,0,0,.1.412a.568.568,0,0,0,0,.649.666.666,0,0,0,.729.11A2.061,2.061,0,0,0,1.484.688a.615.615,0,0,0,.14-.174A.187.187,0,0,0,1.6.311" transform="translate(30.354 13.559)" fill="#1a4f8b"/>
            <path id="Shape-154" data-name="Shape" d="M.065,0C.154,0,.213.572.756.941s1.166.242,1.179.322-.127.131-.394.161a1.45,1.45,0,0,1-.979-.233,1.31,1.31,0,0,1-.543-.8C-.029.153.026,0,.065,0Z" transform="translate(30.434 13.056)" fill="#263238"/>
            <path id="Shape-155" data-name="Shape" d="M13.67,0,7.645,24.829S.462,54.56.225,55.345L0,56.269l10.121.763L27.658,1.883Z" transform="translate(1.2 77.105)" fill="#263238"/>
            <path id="Shape-156" data-name="Shape" d="M18.832,45.784c1.637,7.916,7.632,41.128,7.632,41.128l10.265-1.056L30.89,43.494a13.911,13.911,0,0,0-.67-3.248l-9.6-28.768L2.58,0C2.4,0-.342,7.416.036,12.555a13.165,13.165,0,0,0,2.319,6.4c1.149,1.675,2.748,4.011,3.1,4.554.572.865,13.373,22.277,13.373,22.277Z" transform="translate(14.257 48.752)" fill="#263238"/>
            <path id="Shape-157" data-name="Shape" d="M12.563,36.769c-.492,1.789-.9,3.6-1.221,5.427-1.153,6.653-4.087,22.841-5.991,27.136C2.938,74.76-.98,95.26.225,99.012s27.437,7.539,27.437,7.539S29.167,81.98,30.676,75.8,35.34,56.053,35.8,48.065s.3-21.857-2.26-30.447S25.084,0,25.084,0s-5.037,1.391-6.754,3.392c0,0-2.095,2.569-2.12,5.016s-1.162,14.077-1.921,20.835a64.674,64.674,0,0,1-1.726,7.526Z" transform="translate(0 21.956)" fill="#1a4f8b"/>
            <path id="Shape-158" data-name="Shape" d="M10.754,42.917a.36.36,0,0,1,0-.123v-.36c0-.331-.038-.793-.068-1.382a44.52,44.52,0,0,0-.488-5.088,17.023,17.023,0,0,0-.92-3.392A13.042,13.042,0,0,0,7.256,29.12c-.869-1.115-1.9-2.2-2.9-3.392a20.319,20.319,0,0,1-1.437-1.891A10.914,10.914,0,0,1,1.8,21.654a7.127,7.127,0,0,1-.263-4.77,9.553,9.553,0,0,1,1.107-2.01,3.846,3.846,0,0,0,.424-.975,1.458,1.458,0,0,0,.038-.5,1.018,1.018,0,0,0-.17-.454,1.522,1.522,0,0,0-.789-.568c-.318-.119-.653-.208-.971-.356a1.887,1.887,0,0,1-.793-.661,2.362,2.362,0,0,1-.339-.937A6.263,6.263,0,0,1,.094,8.565C.179,7.984.26,7.424.336,6.894.65,4.774.9,3.053,1.078,1.849c.093-.585.161-1.043.212-1.374L1.354.123A1.039,1.039,0,0,1,1.379,0a.386.386,0,0,1,0,.123,1.348,1.348,0,0,1-.038.36c-.042.331-.1.789-.174,1.374C1.006,3.07.777,4.791.5,6.915.425,7.45.349,8.009.268,8.59a6.207,6.207,0,0,0-.038,1.8,2.184,2.184,0,0,0,.318.848,1.658,1.658,0,0,0,.721.594c.293.136.623.22.958.343a1.73,1.73,0,0,1,.89.644,1.272,1.272,0,0,1,.2.538,1.645,1.645,0,0,1-.042.577,3.774,3.774,0,0,1-.458,1.035,9.553,9.553,0,0,0-1.085,1.976A6.941,6.941,0,0,0,2,21.565a13.449,13.449,0,0,0,2.51,4.011c.992,1.187,2.022,2.273,2.9,3.392a13.352,13.352,0,0,1,2.022,3.562,16.93,16.93,0,0,1,.9,3.417,39.681,39.681,0,0,1,.424,5.088q0,.886.025,1.386v.36a1.274,1.274,0,0,0-.025.136Z" transform="translate(25.07 26.696)" fill="#263238"/>
            <path id="Shape-159" data-name="Shape" d="M.283.234A.3.3,0,0,1,.406.1.708.708,0,0,1,.9.013a.7.7,0,0,1,.568.5.755.755,0,0,1-1.247.772A.691.691,0,0,1,.037.552a.717.717,0,0,1,.314-.4C.457.1.525.1.529.111A.9.9,0,0,0,.19.594a.526.526,0,0,0,.17.538A.555.555,0,0,0,1.271.564a.534.534,0,0,0-.4-.4A.979.979,0,0,0,.283.234Z" transform="translate(32.195 72.737)" fill="#263238"/>
            <path id="Shape-160" data-name="Shape" d="M.275.234A.306.306,0,0,1,.4.1.683.683,0,0,1,.9.014a.7.7,0,0,1,.568.5A.755.755,0,0,1,.22,1.286.717.717,0,0,1,.343.158C.449.1.521.1.521.111A.958.958,0,0,0,.182.595a.534.534,0,0,0,.174.538A.6.6,0,0,0,1.03,1.2.606.606,0,0,0,1.267.565a.534.534,0,0,0-.424-.4A1,1,0,0,0,.275.234Z" transform="translate(29.392 87.348)" fill="#263238"/>
            <path id="Shape-161" data-name="Shape" d="M15.716,0a.466.466,0,0,1,0,.14,3.093,3.093,0,0,1-.038.424c-.038.377-.1.912-.174,1.594-.161,1.386-.424,3.392-.776,5.86-.187,1.234-.424,2.582-.708,4.02a13.11,13.11,0,0,1-.611,2.2,2.4,2.4,0,0,1-.131.28,1.06,1.06,0,0,1-.212.242,2.23,2.23,0,0,1-.526.339,6.461,6.461,0,0,1-1.17.4,27.806,27.806,0,0,1-5.152.577,53.282,53.282,0,0,1-5.563-.064l-.237-.03a.343.343,0,0,1-.254-.182,1.331,1.331,0,0,1-.131-.483,6.207,6.207,0,0,1-.025-.929,15.654,15.654,0,0,1,.144-1.8c.14-1.183.322-2.332.513-3.447.382-2.23.8-4.329,1.217-6.25V2.828h.1A59.783,59.783,0,0,0,12.015,1.085c1.191-.314,2.12-.6,2.752-.789L15.5.072A1.938,1.938,0,0,1,15.737,0L15.674.03,15.487.1c-.165.064-.39.148-.7.254-.623.212-1.552.509-2.739.848A56.749,56.749,0,0,1,1.979,3.015l.085-.076c-.424,1.921-.818,4.02-1.2,6.246C.681,10.3.5,11.448.367,12.622.3,13.208.24,13.805.223,14.4a5.72,5.72,0,0,0,.025.895,1.272,1.272,0,0,0,.1.4c.038.051.051.068.1.076l.225.025a52.769,52.769,0,0,0,5.538.068A27.513,27.513,0,0,0,11.3,15.3a6.071,6.071,0,0,0,1.136-.386,1.306,1.306,0,0,0,.776-.759,12.974,12.974,0,0,0,.611-2.162c.305-1.429.534-2.777.729-4.007.394-2.463.661-4.46.848-5.843.093-.683.165-1.217.216-1.594.025-.17.042-.31.059-.424S15.716,0,15.716,0Z" transform="translate(13.862 69.304)" fill="#263238"/>
            <path id="Shape-162" data-name="Shape" d="M14.1,0a2.545,2.545,0,0,1-.5.263c-.331.157-.823.36-1.433.589A27.06,27.06,0,0,1,2.112,2.519a12.89,12.89,0,0,1-1.548-.1A3.07,3.07,0,0,1,0,2.34a2.543,2.543,0,0,1,.568,0c.365,0,.89.025,1.543.025A30.952,30.952,0,0,0,12.105.7C12.724.492,13.22.31,13.56.178A2.858,2.858,0,0,1,14.1,0Z" transform="translate(15.209 72.395)" fill="#263238"/>
            <path id="Shape-163" data-name="Shape" d="M0,36.743l.038-.2c.03-.144.072-.335.127-.585.123-.517.3-1.272.526-2.23.466-1.933,1.174-4.723,2.095-8.158l1.522-5.614c.551-2.018,1.132-4.176,1.823-6.428A52.046,52.046,0,0,1,8.747,6.622a31.962,31.962,0,0,1,1.878-3.43A12.4,12.4,0,0,1,11.8,1.559,4.978,4.978,0,0,1,13.4.287,2.76,2.76,0,0,1,15.451.126a3.528,3.528,0,0,1,1.637,1.2A7.015,7.015,0,0,1,18.27,5.053c.216,2.544.424,5.012.623,7.356.39,4.685.742,8.9,1.039,12.449s.522,6.4.683,8.4c.076.984.136,1.751.174,2.285a5.642,5.642,0,0,0,.042.594,1.832,1.832,0,0,1,0,.2,1.019,1.019,0,0,0-.03-.2c-.03-.131-.034-.343-.059-.594l-.216-2.281c-.178-1.993-.424-4.855-.75-8.391s-.678-7.763-1.09-12.444c-.2-2.345-.424-4.8-.636-7.352a6.824,6.824,0,0,0-1.136-3.612A3.316,3.316,0,0,0,15.383.338,2.514,2.514,0,0,0,13.5.487a4.817,4.817,0,0,0-1.531,1.23,11.94,11.94,0,0,0-1.153,1.59A31.875,31.875,0,0,0,8.942,6.7a52.39,52.39,0,0,0-2.616,6.873c-.7,2.243-1.272,4.4-1.84,6.415s-1.077,3.892-1.548,5.605C2,29.022,1.268,31.808.776,33.733c-.246.958-.424,1.7-.564,2.222-.068.246-.114.424-.153.577S0,36.743,0,36.743Z" transform="translate(5.512 23.695)" fill="#455a64"/>
            <path id="Shape-164" data-name="Shape" d="M3.248,0C3.082.661,0,18.2,0,18.2l22.934.742L26.093.755Z" transform="translate(1.225 58.975)" fill="#263238"/>
            <path id="Shape-165" data-name="Shape" d="M22.451.84A1.378,1.378,0,0,1,22.243,1c-.136.1-.348.233-.619.424-.538.348-1.336.848-2.336,1.4S17.079,4.045,15.7,4.7c-.691.322-1.408.666-2.2.95a7.632,7.632,0,0,1-2.544.373A12.025,12.025,0,0,1,6.123,4.757,17.68,17.68,0,0,1,2.731,2.536C1.836,1.806,1.158,1.166.7.721.466.5.271.318.17.2A1.459,1.459,0,0,1,0,0,1.273,1.273,0,0,1,.2.161c.14.131.326.293.551.5.479.424,1.17,1.047,2.073,1.755A18.041,18.041,0,0,0,6.22,4.558a12.012,12.012,0,0,0,4.715,1.2,7.526,7.526,0,0,0,2.489-.356c.763-.276,1.5-.615,2.184-.929,1.374-.644,2.586-1.272,3.6-1.827s1.815-1.018,2.37-1.34l.64-.373a.924.924,0,0,1,.237-.1Z" transform="translate(4.63 59.234)" fill="#455a64"/>
            <path id="Shape-166" data-name="Shape" d="M2.968,0c.059,0-.555,3.816-1.374,8.535s-1.531,8.5-1.59,8.5S.559,13.22,1.378,8.505,2.908-.008,2.968,0Z" transform="translate(22.71 60.845)" fill="#455a64"/>
            <path id="Shape-167" data-name="Shape" d="M.21.123C.147.691.087,1.264.024,1.819a1.531,1.531,0,0,0,0,.538.509.509,0,0,0,.356.377.5.5,0,0,0,.509-.293,1.5,1.5,0,0,0,.123-.615c.03-.611.064-1.221.1-1.827H.363" transform="translate(14.68 64.419)" fill="#455a64"/>
            <path id="Shape-168" data-name="Shape" d="M10.518.1c1.866-.628,3.422,1.789,3.634,3.744a41.928,41.928,0,0,1,.127,6.784A39.678,39.678,0,0,1,10.921,23.7L30.1,26.576l-.7,7.378L5.141,31.35a5.749,5.749,0,0,1-4.889-7.4C2.419,16.879,5.96,6.716,6.744,5.032,7.83,2.764,7.953.958,10.518.1Z" transform="translate(9.096 24.169)" fill="#1a4f8b"/>
            <path id="Shape-169" data-name="Shape" d="M0,20.318H.127l.365.051,1.4.212c1.23.17,3.015.424,5.258.683,4.486.53,10.787,1.158,18.024,1.7l-.114.1c.225-2.345.462-4.821.7-7.365h0l.093.119L6.682,12.924H6.576l.034-.1c1.247-3.858,2.2-7.051,2.769-9.3.288-1.119.488-2.006.611-2.608l.14-.687c.034-.153.055-.233.055-.233a1.667,1.667,0,0,1-.025.237c-.025.157-.059.39-.119.7-.106.606-.293,1.492-.564,2.62-.538,2.256-1.467,5.461-2.7,9.328L6.7,12.767l19.19,2.845H26v.106h0c-.242,2.544-.479,5.016-.7,7.365v.106h-.1C17.948,22.62,11.647,21.963,7.161,21.4c-2.239-.28-4.024-.551-5.249-.746L.483,20.4l-.36-.068Z" transform="translate(13.322 35.006)" fill="#263238"/>
            <path id="Shape-170" data-name="Shape" d="M0,7.632A32.352,32.352,0,0,1,.242,3.817,32.257,32.257,0,0,1,.708,0,34.145,34.145,0,0,1,.462,3.816,33.653,33.653,0,0,1,0,7.632Z" transform="translate(34.717 50.16)" fill="#263238"/>
            <path id="Shape-171" data-name="Shape" d="M.684.128a.187.187,0,0,1,.144,0,.539.539,0,0,1,.331.225.551.551,0,0,1,.034.606A.636.636,0,0,1,.009.73a.615.615,0,0,1,.2-.568C.484-.071.726.009.713.031A.9.9,0,0,0,.319.272.462.462,0,0,0,.209.7a.488.488,0,0,0,.352.365.475.475,0,0,0,.458-.2.424.424,0,0,0,0-.424C.891.175.679.162.684.128Z" transform="translate(36.471 51.283)" fill="#263238"/>
            <path id="Polygon-3" data-name="Polygon" d="M0,0,.873,9.086H5.3L6.364,0Z" transform="translate(43.333 48.57)" fill="#ebebeb"/>
            <path id="Shape-172" data-name="Shape" d="M.424,0A1.9,1.9,0,0,0,0,1.2H7.208A1.336,1.336,0,0,0,6.784,0Z" transform="translate(42.909 47.395)" fill="#455a64"/>
            <path id="Polygon-4" data-name="Polygon" d="M.242.008,0,.907,5.431.95,5.071,0,.242.008Z" transform="translate(43.909 46.552)" fill="#455a64"/>
            <path id="Shape-173" data-name="Shape" d="M0,0C0,.085.53,4.575.53,4.575H5.944L6.458,0Z" transform="translate(43.239 50.843)" fill="#455a64"/>
            <path id="Shape-174" data-name="Shape" d="M5.016.027,4.876,1.55l5.241.123s0,1.768-.53,2.3c0,0,.53,1.06-.059,1.649s-.941.424-.941.424.237,1.179-.352,1.476S0,7.358,0,7.358L.471,2.427l1.7-.148A2.512,2.512,0,0,1,5.016.027Z" transform="translate(38.563 50.014)" fill="#ffbe9d"/>
            <path id="Shape-175" data-name="Shape" d="M19.6,3.723A3.9,3.9,0,0,0,17.932,1.6a2.926,2.926,0,0,0-1.777-.365h0V1.112A2.543,2.543,0,0,0,13.3.064,12.212,12.212,0,0,0,9.956,1.659c-1.4.746-2.735,1.6-4.075,2.451A10.433,10.433,0,0,0,2.867,6.624a5.232,5.232,0,0,0-.878,3.943c.276,1.488,1.191,2.993.649,4.405C2.273,15.909,1.366,16.5.747,17.3A3.769,3.769,0,0,0,.666,21.7,8.593,8.593,0,0,0,3.1,23.6a39.049,39.049,0,0,0,4.07,2.764,4.779,4.779,0,0,0,4.7.034,4.7,4.7,0,0,0,1.6-4.537,21.164,21.164,0,0,0-1.7-4.766,26.377,26.377,0,0,1-1.743-6.36,4.242,4.242,0,0,1,.22-2.582,5.567,5.567,0,0,1,1.7-1.615,13.517,13.517,0,0,0,3.638-4.155,5.3,5.3,0,0,0,1.454,2.035,13.169,13.169,0,0,0,2.854,2.018A6.6,6.6,0,0,0,19.6,3.723Z" transform="translate(17.345)" fill="#263238"/>
        </g>
        <g id="Plant--inject-64" transform="translate(173.583 139.047)">
            <path id="Shape-176" data-name="Shape" d="M2.387,22.468a3.428,3.428,0,0,1,1.272-3.053,8.733,8.733,0,0,0,2.256-2.6c.7-1.738-.216-4,.975-5.448.7-.848,1.955-1.128,2.578-2.039a4.736,4.736,0,0,0,.568-1.632A16.574,16.574,0,0,1,14.2,0a14.374,14.374,0,0,1-1.662,7.428,9.5,9.5,0,0,0-1.242,2.82c-.267,1.654.644,3.367.229,4.99-.475,1.857-2.569,3.091-2.68,5-.093,1.62,1.31,3.049,1.2,4.664a4.376,4.376,0,0,1-.734,1.916,6.434,6.434,0,0,1-5.9,3.434L0,30.358Z" transform="translate(12.401 22.574)" fill="#1a4f8b"/>
            <g id="Group-6" data-name="Group" transform="translate(12.401 22.574)" opacity="0.3">
                <path id="Shape-177" data-name="Shape" d="M2.387,22.468a3.428,3.428,0,0,1,1.272-3.053,8.733,8.733,0,0,0,2.256-2.6c.7-1.738-.216-4,.975-5.448.7-.848,1.955-1.128,2.578-2.039a4.736,4.736,0,0,0,.568-1.632A16.574,16.574,0,0,1,14.2,0a14.374,14.374,0,0,1-1.662,7.428,9.5,9.5,0,0,0-1.242,2.82c-.267,1.654.644,3.367.229,4.99-.475,1.857-2.569,3.091-2.68,5-.093,1.62,1.31,3.049,1.2,4.664a4.376,4.376,0,0,1-.734,1.916,6.434,6.434,0,0,1-5.9,3.434L0,30.358Z"/>
            </g>
            <path id="Shape-178" data-name="Shape" d="M11.706,42.328a2.794,2.794,0,0,1-.941-.025,5.911,5.911,0,0,1-1.107-.284,4.727,4.727,0,0,1-1.365-.759,1.887,1.887,0,0,1-.56-.755,3.507,3.507,0,0,1-.157-1.022,9.88,9.88,0,0,0-.072-1.1,3.1,3.1,0,0,0-.424-1.1,8.25,8.25,0,0,1-1.272-2.345,8.2,8.2,0,0,1,.106-2.989,6.393,6.393,0,0,0-.059-3.21c-.386-1.068-1.1-2.035-1.471-3.244a15.987,15.987,0,0,1-.254-3.816,5.109,5.109,0,0,0-.424-1.9c-.271-.606-.653-1.179-.946-1.815a12.813,12.813,0,0,1-.848-4.181c-.076-.717-.153-1.446-.233-2.179a10.871,10.871,0,0,0-.365-2.188,19.828,19.828,0,0,0-.806-2.12,6.694,6.694,0,0,1-.39-1.107c-.064-.4-.081-.78-.106-1.174A13.77,13.77,0,0,1,.118,2.65c.1-.789.246-1.569.335-2.357V.157L.474,0l.14.068A5.262,5.262,0,0,1,2.462,1.624,8.268,8.268,0,0,1,3.582,3.71,25.865,25.865,0,0,1,4.621,8.187,12.08,12.08,0,0,0,6,12.321c.369.611.818,1.17,1.213,1.764a4.9,4.9,0,0,1,.848,1.95c.2,1.446-.611,2.709-.449,3.99A4.482,4.482,0,0,0,8.22,21.8c.31.547.67,1.056,1.013,1.565a9.958,9.958,0,0,1,.907,1.582,5.007,5.007,0,0,1,.424,1.7c.081,1.153-.089,2.243,0,3.273a7.513,7.513,0,0,0,.848,2.811c.424.848.848,1.6,1.242,2.345.191.369.369.729.513,1.09a5.262,5.262,0,0,1,.293,1.081,6.665,6.665,0,0,1,0,1.946,4.889,4.889,0,0,1-.988,2.48,2.119,2.119,0,0,1-.28.3,1.349,1.349,0,0,1-.225.191c-.127.093-.2.136-.2.136a4.664,4.664,0,0,0,.666-.649,4.969,4.969,0,0,0,.937-2.463,6.835,6.835,0,0,0-.03-1.921,5.554,5.554,0,0,0-.3-1.056,11.792,11.792,0,0,0-.517-1.077c-.382-.734-.848-1.492-1.272-2.34a7.708,7.708,0,0,1-.848-2.858c-.081-1.056.081-2.15,0-3.273a4.868,4.868,0,0,0-.4-1.658,9.706,9.706,0,0,0-.9-1.548c-.343-.509-.708-1.018-1.026-1.577a4.664,4.664,0,0,1-.64-1.844c-.157-1.365.64-2.637.424-3.981a4.664,4.664,0,0,0-.81-1.866c-.386-.585-.848-1.141-1.221-1.768A12.364,12.364,0,0,1,4.43,8.209,25.121,25.121,0,0,0,3.4,3.769,8.056,8.056,0,0,0,2.314,1.738,5.088,5.088,0,0,0,.563.242L.72.153v.14C.631,1.09.482,1.874.389,2.65A13.417,13.417,0,0,0,.258,5.016c.021.382.042.78.1,1.141A7.42,7.42,0,0,0,.732,7.221a19.505,19.505,0,0,1,.814,2.141,10.667,10.667,0,0,1,.369,2.222c.076.734.157,1.463.229,2.184a12.716,12.716,0,0,0,.848,4.117c.284.619.666,1.191.946,1.819a5.271,5.271,0,0,1,.424,1.967A16.555,16.555,0,0,0,4.6,25.444c.348,1.17,1.09,2.12,1.459,3.239a6.8,6.8,0,0,1,.055,3.286,7.634,7.634,0,0,0-.127,2.938,9.505,9.505,0,0,0,1.242,2.315,3.154,3.154,0,0,1,.424,1.141,10.43,10.43,0,0,1,.064,1.119,3.507,3.507,0,0,0,.14.992,1.819,1.819,0,0,0,.526.721,4.664,4.664,0,0,0,1.331.763,6.083,6.083,0,0,0,1.094.305,4.29,4.29,0,0,0,.691.068Z" transform="translate(0 10.698)" fill="#263238"/>
            <path id="Shape-179" data-name="Shape" d="M.009,0a.97.97,0,0,1,.03.106L.115.411c.064.271.14.674.267,1.183a18.594,18.594,0,0,0,.7,1.789,25.1,25.1,0,0,1,.8,2.425c.254.912.479,1.925.717,3.006a12.55,12.55,0,0,0,1.073,3.341c.276.555.589,1.119.848,1.734a7.87,7.87,0,0,1,.479,1.963,40.406,40.406,0,0,0,.712,4.134l1.874,7.891c.594,2.421,1.132,4.6,1.582,6.445s.8,3.3,1.047,4.346c.114.5.208.9.276,1.187l.064.31a.487.487,0,0,1,0,.106.386.386,0,0,1-.038-.1l-.089-.305c-.076-.284-.178-.678-.314-1.174-.267-1.039-.644-2.514-1.115-4.329S7.98,30.346,7.369,27.929s-1.23-5.088-1.9-7.9a38.5,38.5,0,0,1-.712-4.151,7.984,7.984,0,0,0-.462-1.912c-.237-.6-.547-1.162-.823-1.721A12.788,12.788,0,0,1,2.4,8.849c-.229-1.09-.445-2.1-.687-3.006S1.209,4.121.95,3.417a17.556,17.556,0,0,1-.666-1.81C.161,1.069.106.687.051.411L0,.1A.425.425,0,0,1,.009,0Z" transform="translate(1.156 12.745)" fill="#263238"/>
            <path id="Shape-180" data-name="Shape" d="M2.324,53.025C.1,51.686-.517,47.658.428,45.241s2.582-4.617,2.849-7.208c.2-1.98-.424-4.024.038-5.961.64-2.612,3.205-4.626,3.193-7.318,0-1.509-.848-2.934-.784-4.444.1-1.849,1.526-3.307,2.413-4.935C9.5,12.89,9.6,9.939,10.079,7.144S11.639,1.361,14.128,0c.352,2.379.967,4.007.75,7.208C14.8,8.361,13.449,10.566,13.25,13.1c-.119,1.514-.2,3.027-.3,4.541a14.557,14.557,0,0,1-.738,4.35,31.353,31.353,0,0,0-1.374,3.1c-.581,2.048.153,4.278-.318,6.36-.394,1.76-1.624,3.265-1.883,5.054-.365,2.506,1.247,5.122.4,7.513-.424,1.183-1.4,2.12-1.7,3.358-.22.95,0,1.959-.2,2.913C6.822,51.826,3.88,53.008,2.311,52.9" transform="translate(8.797)" fill="#1a4f8b"/>
            <path id="Shape-181" data-name="Shape" d="M11.168,0a.653.653,0,0,1,0,.136l-.051.39c-.055.343-.114.848-.233,1.5s-.471,1.391-.746,2.277S9.561,6.2,9.29,7.348s-.479,2.408-.712,3.769a15.828,15.828,0,0,1-1.166,4.24c-.318.708-.674,1.42-.941,2.179a9.909,9.909,0,0,0-.483,2.408,47.769,47.769,0,0,1-.683,5.19C4.6,28.65,3.931,32,3.324,35.044S2.1,40.814,1.628,43.1.738,47.238.462,48.535q-.208.95-.331,1.476c-.038.161-.068.288-.089.386A1.1,1.1,0,0,1,0,50.524a.509.509,0,0,1,0-.131c.021-.1.042-.229.072-.39l.288-1.484,1.1-5.453c.475-2.3,1.035-5.041,1.662-8.081S4.4,28.59,5.088,25.08a49.511,49.511,0,0,0,.683-5.173,10.3,10.3,0,0,1,.5-2.459c.276-.772.636-1.488.954-2.192A15.9,15.9,0,0,0,8.4,11.045c.237-1.357.466-2.625.738-3.769a31.665,31.665,0,0,1,.869-3.053c.288-.89.64-1.62.78-2.26s.2-1.145.271-1.484c.03-.161.055-.288.076-.386S11.168,0,11.168,0Z" transform="translate(11.137 2.362)" fill="#263238"/>
        </g>
    </g>
</svg>
